<?xml version="1.0" encoding="UTF-8" standalone="no"?>
<!-- Created with Inkscape (http://www.inkscape.org/) -->

<svg
   width="100mm"
   height="100mm"
   viewBox="0 0 100 100"
   version="1.1"
   id="svg5"
   xml:space="preserve"
   inkscape:version="1.3 (0e150ed6c4, 2023-07-21)"
   sodipodi:docname="comment.svg"
   xmlns:inkscape="http://www.inkscape.org/namespaces/inkscape"
   xmlns:sodipodi="http://sodipodi.sourceforge.net/DTD/sodipodi-0.dtd"
   xmlns="http://www.w3.org/2000/svg"
   xmlns:svg="http://www.w3.org/2000/svg"><sodipodi:namedview
     id="namedview7"
     pagecolor="#ffffff"
     bordercolor="#666666"
     borderopacity="1.0"
     inkscape:showpageshadow="2"
     inkscape:pageopacity="0.0"
     inkscape:pagecheckerboard="0"
     inkscape:deskcolor="#d1d1d1"
     inkscape:document-units="mm"
     showgrid="false"
     showguides="true"
     inkscape:zoom="1.1893044"
     inkscape:cx="222.39891"
     inkscape:cy="148.40608"
     inkscape:window-width="1920"
     inkscape:window-height="1137"
     inkscape:window-x="-8"
     inkscape:window-y="-8"
     inkscape:window-maximized="1"
     inkscape:current-layer="layer1"><sodipodi:guide
       position="5.7086283,46.607445"
       orientation="1,0"
       id="guide304"
       inkscape:locked="false" /><sodipodi:guide
       position="94.291371,27.030175"
       orientation="1,0"
       id="guide306"
       inkscape:locked="false" /><sodipodi:guide
       position="65.101986,7.4528449"
       orientation="0,-1"
       id="guide308"
       inkscape:locked="false" /><sodipodi:guide
       position="53.837492,92.436054"
       orientation="0,-1"
       id="guide310"
       inkscape:locked="false" /><sodipodi:guide
       position="55.840302,14.660224"
       orientation="0,-1"
       id="guide312"
       inkscape:locked="false" /><sodipodi:guide
       position="59.399216,85.383395"
       orientation="0,-1"
       id="guide314"
       inkscape:locked="false" /></sodipodi:namedview><defs
     id="defs2" /><g
     inkscape:label="Слой 1"
     inkscape:groupmode="layer"
     id="layer1"><path
       d="M 81.868703,75.523956 H 41.501678 L 24.505038,92.547155 V 75.523956 H 18.131297 A 10.622901,10.622901 0 0 1 7.5083952,64.901054 V 18.186846 A 10.622901,10.622901 0 0 1 18.131297,7.5639453 H 81.868703 A 10.622901,10.622901 0 0 1 92.491605,18.186846 V 64.901054 A 10.622901,10.622901 0 0 1 81.868703,75.523956 Z M 75.468405,31.385801 A 3.9782766,3.9782766 0 0 0 71.484818,27.402212 H 28.515182 a 3.9782766,3.9782766 0 0 0 -3.983587,3.983589 v 0.47803 c 0,2.204253 1.779336,3.983588 3.983587,3.983588 h 42.969636 c 2.204251,0 3.983587,-1.779335 3.983587,-3.983588 z m 0,19.838269 A 3.9782766,3.9782766 0 0 0 71.484818,47.240481 H 28.515182 a 3.9782766,3.9782766 0 0 0 -3.983587,3.983589 v 0.47803 c 0,2.204252 1.779336,3.983588 3.983587,3.983588 h 42.969636 c 2.204251,0 3.983587,-1.779336 3.983587,-3.983588 z"
       fill-rule="evenodd"
       id="path1"
       style="stroke-width:5.31145" /></g></svg>
