<?xml version="1.0" encoding="UTF-8" standalone="no"?>
<!-- Created with Inkscape (http://www.inkscape.org/) -->

<svg
   width="100mm"
   height="100mm"
   viewBox="0 0 100 100"
   version="1.1"
   id="svg5"
   xml:space="preserve"
   inkscape:version="1.3 (0e150ed6c4, 2023-07-21)"
   sodipodi:docname="delete.svg"
   xmlns:inkscape="http://www.inkscape.org/namespaces/inkscape"
   xmlns:sodipodi="http://sodipodi.sourceforge.net/DTD/sodipodi-0.dtd"
   xmlns="http://www.w3.org/2000/svg"
   xmlns:svg="http://www.w3.org/2000/svg"><sodipodi:namedview
     id="namedview7"
     pagecolor="#ffffff"
     bordercolor="#666666"
     borderopacity="1.0"
     inkscape:showpageshadow="2"
     inkscape:pageopacity="0.0"
     inkscape:pagecheckerboard="0"
     inkscape:deskcolor="#d1d1d1"
     inkscape:document-units="mm"
     showgrid="false"
     showguides="true"
     inkscape:zoom="1.1893044"
     inkscape:cx="120.65876"
     inkscape:cy="161.85932"
     inkscape:window-width="1920"
     inkscape:window-height="1137"
     inkscape:window-x="-8"
     inkscape:window-y="-8"
     inkscape:window-maximized="1"
     inkscape:current-layer="layer1"><sodipodi:guide
       position="5.7086283,46.607445"
       orientation="1,0"
       id="guide304"
       inkscape:locked="false" /><sodipodi:guide
       position="94.291371,27.030175"
       orientation="1,0"
       id="guide306"
       inkscape:locked="false" /><sodipodi:guide
       position="65.101986,7.4528449"
       orientation="0,-1"
       id="guide308"
       inkscape:locked="false" /><sodipodi:guide
       position="53.837492,92.436054"
       orientation="0,-1"
       id="guide310"
       inkscape:locked="false" /><sodipodi:guide
       position="55.840302,14.660224"
       orientation="0,-1"
       id="guide312"
       inkscape:locked="false" /><sodipodi:guide
       position="59.399216,85.383395"
       orientation="0,-1"
       id="guide314"
       inkscape:locked="false" /></sodipodi:namedview><defs
     id="defs2" /><g
     inkscape:label="Слой 1"
     inkscape:groupmode="layer"
     id="layer1"><path
       style="fill:#000000;stroke-width:0.723807"
       d="M 31.844858,84.785763 C 29.256853,84.08227 27.475131,82.024919 27.052702,79.252269 26.952433,78.594144 26.271492,68.188274 25.539499,56.128108 24.807506,44.067941 24.158871,33.705007 24.098088,33.099366 L 23.987574,31.998199 H 50.530342 77.07311 l -0.110825,1.101167 c -0.06095,0.605641 -0.709858,10.925487 -1.442012,22.932988 -0.732153,12.007502 -1.385256,22.334296 -1.451339,22.948432 -0.151914,1.411801 -1.186618,3.522661 -2.134847,4.355222 -0.386919,0.339716 -1.181402,0.841829 -1.765518,1.115807 l -1.062028,0.498128 -18.193184,0.0369 c -13.994364,0.02832 -18.3952,-0.0181 -19.068499,-0.201095 z M 43.117066,70.31306 c 0.390788,-0.203277 2.174603,-1.840664 3.964033,-3.638636 1.789431,-1.797973 3.341591,-3.269042 3.449243,-3.269042 0.107653,0 1.659812,1.471069 3.449243,3.269042 3.359065,3.3751 4.202557,4.008232 5.339993,4.008232 1.809922,0 3.379048,-1.536546 3.367266,-3.297349 -0.0081,-1.213136 -0.668988,-2.108224 -3.997397,-5.414116 -1.801619,-1.789431 -3.275671,-3.34159 -3.275671,-3.449244 0,-0.107652 1.471069,-1.659811 3.269042,-3.449242 1.797973,-1.78943 3.435359,-3.573245 3.638637,-3.964032 0.969944,-1.864656 -0.288324,-4.266799 -2.447134,-4.671794 -1.444983,-0.271081 -2.011868,0.106275 -5.802098,3.862241 l -3.543885,3.51185 -3.541882,-3.51219 c -3.78832,-3.756562 -4.353976,-4.133195 -5.800092,-3.861901 -2.012386,0.377524 -3.316129,2.603422 -2.612405,4.46019 0.112381,0.296512 1.749767,2.093278 3.638639,3.992815 1.888871,1.899535 3.43431,3.537873 3.43431,3.64075 0,0.102876 -1.471069,1.651126 -3.269042,3.440557 -1.797972,1.78943 -3.43536,3.573244 -3.638637,3.964032 -1.425772,2.740952 1.636886,5.803608 4.377837,4.377837 z M 22.598721,27.396927 c -2.122935,-0.636328 -3.344195,-2.928053 -2.816627,-5.285476 0.196907,-0.879873 0.416724,-1.261277 1.148897,-1.99345 1.283332,-1.283332 1.64881,-1.333798 9.659291,-1.333798 h 6.756344 l 0.463627,-0.993169 c 0.727266,-1.557926 1.398227,-2.354 2.405232,-2.85373 l 0.931004,-0.462014 h 9.383853 9.383854 l 0.931003,0.462014 c 1.007004,0.49973 1.677965,1.295804 2.405231,2.85373 l 0.463628,0.993169 h 6.756344 c 8.01048,0 8.37596,0.05046 9.659292,1.333798 0.732173,0.732173 0.95199,1.113577 1.148896,1.99345 0.534081,2.386521 -0.716763,4.669034 -2.902155,5.295797 -0.81478,0.233676 -54.997135,0.22365 -55.777714,-0.01032 z"
       id="path2" /></g></svg>
