<?xml version="1.0" encoding="UTF-8" standalone="no"?>
<!-- Created with Inkscape (http://www.inkscape.org/) -->

<svg
   width="100mm"
   height="100mm"
   viewBox="0 0 100 100"
   version="1.1"
   id="svg5"
   xml:space="preserve"
   inkscape:version="1.3.2 (091e20e, 2023-11-25, custom)"
   sodipodi:docname="edit.svg"
   xmlns:inkscape="http://www.inkscape.org/namespaces/inkscape"
   xmlns:sodipodi="http://sodipodi.sourceforge.net/DTD/sodipodi-0.dtd"
   xmlns="http://www.w3.org/2000/svg"
   xmlns:svg="http://www.w3.org/2000/svg"><sodipodi:namedview
     id="namedview7"
     pagecolor="#ffffff"
     bordercolor="#666666"
     borderopacity="1.0"
     inkscape:showpageshadow="2"
     inkscape:pageopacity="0.0"
     inkscape:pagecheckerboard="0"
     inkscape:deskcolor="#d1d1d1"
     inkscape:document-units="mm"
     showgrid="false"
     showguides="true"
     inkscape:zoom="0.8579048"
     inkscape:cx="163.18827"
     inkscape:cy="274.50598"
     inkscape:window-width="1920"
     inkscape:window-height="1137"
     inkscape:window-x="-8"
     inkscape:window-y="-8"
     inkscape:window-maximized="1"
     inkscape:current-layer="layer1"><sodipodi:guide
       position="5.7086283,46.607445"
       orientation="1,0"
       id="guide304"
       inkscape:locked="false" /><sodipodi:guide
       position="94.291371,27.030175"
       orientation="1,0"
       id="guide306"
       inkscape:locked="false" /><sodipodi:guide
       position="65.101986,7.4528449"
       orientation="0,-1"
       id="guide308"
       inkscape:locked="false" /><sodipodi:guide
       position="53.837492,92.436054"
       orientation="0,-1"
       id="guide310"
       inkscape:locked="false" /><sodipodi:guide
       position="55.840302,14.660224"
       orientation="0,-1"
       id="guide312"
       inkscape:locked="false" /><sodipodi:guide
       position="59.399216,85.383395"
       orientation="0,-1"
       id="guide314"
       inkscape:locked="false" /></sodipodi:namedview><defs
     id="defs2" /><g
     inkscape:label="Слой 1"
     inkscape:groupmode="layer"
     id="layer1"><path
       style="fill:#000000;stroke-width:0.614014"
       d="M 22.057329,92.256806 C 14.326558,91.511001 8.5041179,85.786219 7.6455799,78.086783 c -0.239471,-2.147593 -0.239471,-43.881771 0,-46.029368 0.638513,-5.726247 4.0001891,-10.435232 9.1472321,-12.813313 2.947978,-1.362047 5.178426,-1.575107 15.783434,-1.507682 l 8.118288,0.05161 0.90093,0.422572 c 1.19694,0.561411 2.030494,1.317801 2.561733,2.324586 0.393257,0.745291 0.436324,0.995291 0.436324,2.532721 0,1.535856 -0.0431,1.786736 -0.432726,2.518096 -0.556241,1.044154 -1.46686,1.917028 -2.491514,2.388235 -0.811086,0.372994 -0.826369,0.373667 -10.316071,0.454776 l -9.50378,0.08123 -0.847474,0.446744 c -1.727436,0.910617 -2.551614,2.121994 -2.818864,4.143156 -0.108588,0.821246 -0.149696,8.766619 -0.118302,22.865472 l 0.04814,21.606884 0.365007,0.90155 c 0.432007,1.067009 1.431665,2.133403 2.559233,2.730065 l 0.812285,0.429828 22.57295,0.04286 c 25.176526,0.04777 23.548751,0.118695 25.080801,-1.092318 0.584228,-0.461806 0.964904,-0.9515 1.354269,-1.742117 l 0.541609,-1.099735 0.08123,-9.426393 c 0.07398,-8.585152 0.107053,-9.483601 0.370557,-10.067473 0.718562,-1.592187 2.11796,-2.699358 3.825734,-3.026854 2.756056,-0.528525 5.392096,0.978302 6.125628,3.50156 0.218331,0.751031 0.245347,2.16726 0.200432,10.508353 l -0.05188,9.640334 -0.44026,1.624576 c -1.799613,6.640574 -7.113034,11.05276 -14.165153,11.762511 -2.116229,0.212989 -43.077839,0.210772 -45.287993,-0.0025 z M 31.271982,70.6896 c -1.603193,-0.730823 -2.433843,-2.031139 -2.400686,-3.758083 0.01756,-0.914389 0.388008,-2.126176 2.762916,-9.037722 1.735147,-5.049692 2.942507,-8.311517 3.28672,-8.879467 0.375434,-0.619466 4.980321,-5.333755 14.856277,-15.209239 l 14.312198,-14.311513 8.12194,8.123156 8.121941,8.123157 -14.458274,14.465644 C 52.337032,63.750429 51.344362,64.706823 50.279546,65.23116 c -0.625465,0.307989 -4.607049,1.730389 -8.847974,3.160893 -8.352722,2.817451 -8.798126,2.918174 -10.15959,2.297547 z m 44.664249,-46.825949 -8.111244,-8.117363 3.086696,-3.046743 c 3.36399,-3.3204494 4.329688,-3.9944448 6.433833,-4.4904365 2.133838,-0.5029896 3.980442,-0.2743941 6.156647,0.7621457 1.254197,0.5973825 1.606622,0.882964 3.841251,3.1126768 3.256668,3.249506 4.072876,4.559807 4.42333,7.10101 0.33936,2.460736 -0.373412,4.991036 -1.96943,6.991384 -0.469051,0.587875 -1.954645,2.134424 -3.301331,3.436776 l -2.448508,2.367914 z"
       id="path2" /></g></svg>
