<?xml version="1.0" encoding="UTF-8" standalone="no"?>
<!-- Created with Inkscape (http://www.inkscape.org/) -->

<svg
   width="100mm"
   height="100mm"
   viewBox="0 0 100 100"
   version="1.1"
   id="svg5"
   xml:space="preserve"
   inkscape:version="1.3 (0e150ed6c4, 2023-07-21)"
   sodipodi:docname="email.svg"
   xmlns:inkscape="http://www.inkscape.org/namespaces/inkscape"
   xmlns:sodipodi="http://sodipodi.sourceforge.net/DTD/sodipodi-0.dtd"
   xmlns="http://www.w3.org/2000/svg"
   xmlns:svg="http://www.w3.org/2000/svg"><sodipodi:namedview
     id="namedview7"
     pagecolor="#ffffff"
     bordercolor="#666666"
     borderopacity="1.0"
     inkscape:showpageshadow="2"
     inkscape:pageopacity="0.0"
     inkscape:pagecheckerboard="0"
     inkscape:deskcolor="#d1d1d1"
     inkscape:document-units="mm"
     showgrid="false"
     showguides="true"
     inkscape:zoom="1.1893044"
     inkscape:cx="120.65876"
     inkscape:cy="161.85932"
     inkscape:window-width="1920"
     inkscape:window-height="1137"
     inkscape:window-x="-8"
     inkscape:window-y="-8"
     inkscape:window-maximized="1"
     inkscape:current-layer="layer1"><sodipodi:guide
       position="5.7086283,46.607445"
       orientation="1,0"
       id="guide304"
       inkscape:locked="false" /><sodipodi:guide
       position="94.291371,27.030175"
       orientation="1,0"
       id="guide306"
       inkscape:locked="false" /><sodipodi:guide
       position="65.101986,7.4528449"
       orientation="0,-1"
       id="guide308"
       inkscape:locked="false" /><sodipodi:guide
       position="53.837492,92.436054"
       orientation="0,-1"
       id="guide310"
       inkscape:locked="false" /><sodipodi:guide
       position="55.840302,14.660224"
       orientation="0,-1"
       id="guide312"
       inkscape:locked="false" /><sodipodi:guide
       position="59.399216,85.383395"
       orientation="0,-1"
       id="guide314"
       inkscape:locked="false" /></sodipodi:namedview><defs
     id="defs2" /><g
     inkscape:label="Слой 1"
     inkscape:groupmode="layer"
     id="layer1"><path
       style="fill:#000000;stroke-width:0.90877"
       d="M 15.160469,82.942896 C 11.226203,82.405449 7.5273352,79.410403 6.1181494,75.621146 L 5.5492091,74.091287 5.4770709,50.888295 C 5.4343223,37.137621 5.4973365,27.097593 5.6317572,26.242628 6.3210251,21.858658 9.0116072,18.583576 13.078551,17.1781 l 1.601025,-0.553292 H 49.784621 84.889663 L 86.49069,17.1781 c 4.066942,1.405476 6.757525,4.680558 7.446793,9.064528 0.13425,0.85388 0.19872,10.912435 0.157966,24.645667 l -0.06886,23.202992 -0.627768,1.613049 c -1.246601,3.203143 -3.584057,5.491086 -6.909961,6.763573 l -1.358755,0.519862 -34.624152,0.02681 c -19.043281,0.01472 -34.948751,-0.01754 -35.345486,-0.07171 z m 68.868477,-8.391105 c 1.926579,-0.770864 1.814192,0.239782 1.889447,-16.991133 0.03683,-8.430621 0.008,-15.328402 -0.06386,-15.328402 -0.07193,0 -5.457991,4.401353 -11.968998,9.780785 -13.241854,10.940493 -14.0535,11.572581 -16.133875,12.56463 -2.647003,1.262251 -4.761295,1.718237 -7.967042,1.718237 -3.217969,0 -5.319783,-0.455852 -8.00427,-1.736004 -2.025561,-0.96593 -2.791853,-1.563898 -16.27251,-12.698107 -6.412389,-5.296248 -11.715452,-9.629541 -11.78458,-9.629541 -0.06913,0 -0.119582,6.735479 -0.112119,14.967734 0.0099,10.934765 0.0909,15.194487 0.300558,15.809293 0.213897,0.627233 0.560214,0.97934 1.359828,1.382562 l 1.07284,0.541001 h 33.366111 c 29.891268,0 33.465292,-0.03969 34.318465,-0.381055 z M 54.186299,57.112761 c 1.170246,-0.589408 5.792005,-4.26668 16.72711,-13.308809 L 86.02348,31.309584 85.927626,29.016552 c -0.104192,-2.492608 -0.435955,-3.318775 -1.533542,-3.818869 -0.874163,-0.398295 -68.344771,-0.398295 -69.218934,0 -1.097404,0.50001 -1.429355,1.326351 -1.533481,3.817371 l -0.09579,2.291536 14.676614,12.063698 c 8.072137,6.635034 15.19795,12.437579 15.835137,12.894545 1.924554,1.380217 3.666796,1.867865 6.277744,1.757122 1.955477,-0.08295 2.435406,-0.196252 3.850919,-0.909194 z"
       id="path2" /></g></svg>
