<?xml version="1.0" encoding="UTF-8" standalone="no"?>
<!-- Created with Inkscape (http://www.inkscape.org/) -->

<svg
   width="100mm"
   height="100mm"
   viewBox="0 0 100 100"
   version="1.1"
   id="svg5"
   xml:space="preserve"
   inkscape:version="1.3.2 (091e20e, 2023-11-25, custom)"
   sodipodi:docname="instagram.svg"
   xmlns:inkscape="http://www.inkscape.org/namespaces/inkscape"
   xmlns:sodipodi="http://sodipodi.sourceforge.net/DTD/sodipodi-0.dtd"
   xmlns="http://www.w3.org/2000/svg"
   xmlns:svg="http://www.w3.org/2000/svg"><sodipodi:namedview
     id="namedview7"
     pagecolor="#ffffff"
     bordercolor="#666666"
     borderopacity="1.0"
     inkscape:showpageshadow="2"
     inkscape:pageopacity="0.0"
     inkscape:pagecheckerboard="0"
     inkscape:deskcolor="#d1d1d1"
     inkscape:document-units="mm"
     showgrid="false"
     showguides="true"
     inkscape:zoom="1.6819304"
     inkscape:cx="156.07067"
     inkscape:cy="150.12512"
     inkscape:window-width="1920"
     inkscape:window-height="1137"
     inkscape:window-x="-8"
     inkscape:window-y="-8"
     inkscape:window-maximized="1"
     inkscape:current-layer="layer1"><sodipodi:guide
       position="5.7086283,46.607445"
       orientation="1,0"
       id="guide304"
       inkscape:locked="false" /><sodipodi:guide
       position="94.291371,27.030175"
       orientation="1,0"
       id="guide306"
       inkscape:locked="false" /><sodipodi:guide
       position="65.101986,7.4528449"
       orientation="0,-1"
       id="guide308"
       inkscape:locked="false" /><sodipodi:guide
       position="53.837492,92.436054"
       orientation="0,-1"
       id="guide310"
       inkscape:locked="false" /><sodipodi:guide
       position="55.840302,14.660224"
       orientation="0,-1"
       id="guide312"
       inkscape:locked="false" /><sodipodi:guide
       position="59.399216,85.383395"
       orientation="0,-1"
       id="guide314"
       inkscape:locked="false" /></sodipodi:namedview><defs
     id="defs2" /><g
     inkscape:label="Слой 1"
     inkscape:groupmode="layer"
     id="layer1"><path
       style="fill:#000000;stroke-width:0.568986"
       d="M 17.429494,92.268519 C 14.563879,91.748403 12.036568,90.226781 10.198534,87.914964 9.0509231,86.471536 8.3094589,85.010083 7.849085,83.284102 L 7.5139987,82.027837 V 49.961895 17.895955 L 7.8515548,16.629923 C 9.008518,12.290637 12.321474,9.0293027 16.772475,7.8480075 l 1.279628,-0.3396124 h 31.840126 c 30.435518,0 31.893256,0.012275 33.044481,0.2782798 4.201029,0.9706972 7.582451,4.0634701 8.925278,8.1633851 0.654169,1.997306 0.655568,2.07812 0.604112,34.9151 -0.0553,35.293263 0.0685,31.836289 -1.240072,34.625193 -1.720117,3.666002 -5.111788,6.211883 -9.117312,6.843696 -1.573578,0.248201 -63.295186,0.185673 -64.679222,-0.06556 z m 46.237541,-12.11138 c 8.216472,-0.580628 14.005619,-5.322978 15.974962,-13.086359 0.559592,-2.205981 0.688914,-5.405231 0.688539,-17.033613 -3.79e-4,-11.72179 -0.130888,-14.985831 -0.686818,-17.17737 -1.436457,-5.662683 -4.805411,-9.61271 -10.050394,-11.783877 -3.20506,-1.326738 -5.434051,-1.496729 -19.625823,-1.496729 -14.19472,0 -16.420416,0.169849 -19.628705,1.49792 -3.360661,1.391146 -5.826657,3.384098 -7.653716,6.185532 -1.432901,2.197072 -2.225187,4.232693 -2.653182,6.816826 -0.73259,4.423209 -0.733777,27.33583 -0.0017,31.764853 0.778767,4.711136 3.389209,8.89139 7.064383,11.312606 3.277286,2.159085 5.9501,2.894493 11.356225,3.124593 3.989456,0.169802 22.333632,0.07932 25.216175,-0.124382 z M 37.321778,74.701243 c -2.392537,-0.193101 -4.723726,-0.753043 -6.247591,-1.500648 -1.648263,-0.808634 -3.42815,-2.536322 -4.252875,-4.128148 -0.640357,-1.235976 -1.202925,-3.278171 -1.490585,-5.411018 -0.293329,-2.174884 -0.293173,-25.225955 1.86e-4,-27.399068 0.507797,-3.761608 1.350005,-5.779477 3.177394,-7.612805 1.321702,-1.325998 2.278717,-1.908557 4.149738,-2.52605 2.78545,-0.919284 3.526542,-0.967953 15.804013,-1.037916 7.238374,-0.04124 11.892158,-0.006 13.286956,0.100724 5.161001,0.394777 7.830813,1.398819 9.992474,3.75789 1.47503,1.609737 2.245153,3.498617 2.799573,6.866525 0.293182,1.780972 0.455834,22.625602 0.202356,25.932678 -0.393096,5.128633 -1.319941,7.677168 -3.571702,9.82107 -1.983163,1.88817 -4.571181,2.802492 -8.91877,3.150916 -2.418331,0.193809 -22.495715,0.182415 -24.931167,-0.01416 z m 14.627665,-9.247222 c 3.830032,-0.400633 7.840618,-2.718308 10.304316,-5.954755 1.576165,-2.070537 2.533156,-4.274467 3.058435,-7.043512 0.73573,-3.878457 -0.411192,-8.555986 -2.894569,-11.805009 -2.023627,-2.647529 -4.430504,-4.375551 -7.632705,-5.479918 -4.034379,-1.391367 -9.018565,-0.895839 -12.567254,1.249435 -4.691606,2.836199 -7.488467,7.433599 -7.781958,12.791759 -0.407456,7.43877 4.566089,14.057907 11.994001,15.962445 1.829861,0.469182 3.094566,0.533235 5.519734,0.279555 z M 47.558792,59.747376 C 46.226697,59.449799 45.46236,59.143311 44.562063,58.545728 42.560824,57.217381 41.293517,55.60176 40.499721,53.366869 40.0732,52.16602 40.038758,51.918338 40.036692,50.037167 c -0.0019,-1.72499 0.0505,-2.19172 0.346432,-3.086158 1.092047,-3.30065 3.359386,-5.490274 6.80579,-6.57252 0.942704,-0.296028 1.424157,-0.350198 3.004403,-0.338033 1.602317,0.01233 2.06243,0.07358 3.097963,0.412386 3.022403,0.988862 5.318399,3.452382 6.336893,6.799256 0.207914,0.683222 0.273193,1.380025 0.267968,2.860342 -0.0061,1.734116 -0.05395,2.092398 -0.419827,3.144893 -0.536483,1.543269 -1.014516,2.340819 -2.095935,3.496859 -1.407156,1.504254 -3.138657,2.499882 -5.229985,3.007285 -1.051857,0.255205 -3.418597,0.247936 -4.591602,-0.0141 z M 67.581188,37.121814 c 1.37902,-0.691989 2.251333,-2.018684 2.242692,-3.410897 -0.0091,-1.459212 -1.176362,-3.047117 -2.502514,-3.404213 -2.458657,-0.662047 -4.670505,0.951406 -4.670505,3.406943 0,1.278805 0.456991,2.192207 1.455719,2.909595 1.215539,0.873121 2.39183,1.041908 3.474608,0.498572 z"
       id="path2" /></g></svg>
