<?xml version="1.0" encoding="UTF-8" standalone="no"?>
<svg
   sodipodi:docname="logo.svg"
   inkscape:version="1.3 (0e150ed6c4, 2023-07-21)"
   id="svg936"
   version="1.1"
   viewBox="0 0 40 40"
   height="40mm"
   width="40mm"
   xmlns:inkscape="http://www.inkscape.org/namespaces/inkscape"
   xmlns:sodipodi="http://sodipodi.sourceforge.net/DTD/sodipodi-0.dtd"
   xmlns:xlink="http://www.w3.org/1999/xlink"
   xmlns="http://www.w3.org/2000/svg"
   xmlns:svg="http://www.w3.org/2000/svg"
   xmlns:rdf="http://www.w3.org/1999/02/22-rdf-syntax-ns#"
   xmlns:cc="http://creativecommons.org/ns#"
   xmlns:dc="http://purl.org/dc/elements/1.1/">
  <defs
     id="defs930">
    <linearGradient
       id="linearGradient3"
       inkscape:collect="always">
      <stop
         style="stop-color:#6da3ee;stop-opacity:1;"
         offset="0"
         id="stop3" />
      <stop
         style="stop-color:#dfe7f0;stop-opacity:1;"
         offset="1"
         id="stop4" />
    </linearGradient>
    <linearGradient
       id="linearGradient1"
       inkscape:collect="always">
      <stop
         style="stop-color:#0c0d46;stop-opacity:1;"
         offset="0"
         id="stop1" />
      <stop
         style="stop-color:#0074bf;stop-opacity:1;"
         offset="1"
         id="stop2" />
    </linearGradient>
    <inkscape:path-effect
       effect="copy_rotate"
       starting_point="36.997043,326.3416"
       origin="-63.002957,326.3416"
       id="path-effect3439"
       is_visible="true"
       lpeversion="1"
       method="normal"
       num_copies="12"
       starting_angle="0"
       rotation_angle="30"
       gap="-0.01"
       copies_to_360="true"
       mirror_copies="false"
       split_items="false"
       lpesatellites=""
       link_styles="false" />
    <inkscape:path-effect
       effect="copy_rotate"
       starting_point="36.997043,326.3416"
       origin="-63.002957,326.3416"
       id="path-effect3437"
       is_visible="true"
       lpeversion="1"
       method="normal"
       num_copies="15"
       starting_angle="0"
       rotation_angle="24"
       gap="-0.01"
       copies_to_360="true"
       mirror_copies="false"
       split_items="false"
       lpesatellites=""
       link_styles="false" />
    <inkscape:path-effect
       split_items="false"
       mirror_copies="false"
       copies_to_360="true"
       gap="-0.01"
       rotation_angle="15.652174"
       starting_angle="0"
       num_copies="23"
       method="normal"
       lpeversion="1"
       is_visible="true"
       id="path-effect3435"
       origin="-63.002957,326.3416"
       starting_point="36.997043,326.3416"
       effect="copy_rotate"
       lpesatellites=""
       link_styles="false" />
    <rect
       x="-575.85895"
       y="-221.88716"
       width="149.29675"
       height="27.876211"
       id="rect3218" />
    <rect
       x="-584.63708"
       y="-221.06737"
       width="17.025068"
       height="14.967093"
       id="rect3212" />
    <linearGradient
       inkscape:collect="always"
       id="linearGradient3177">
      <stop
         style="stop-color:#12229e;stop-opacity:1"
         offset="0"
         id="stop3173" />
      <stop
         style="stop-color:#36a8e1;stop-opacity:1"
         offset="1"
         id="stop3175" />
    </linearGradient>
    <linearGradient
       inkscape:collect="always"
       id="linearGradient2857">
      <stop
         style="stop-color:#420d0d;stop-opacity:1"
         offset="0"
         id="stop2853" />
      <stop
         style="stop-color:#b40a0a;stop-opacity:1"
         offset="0.49825764"
         id="stop2859" />
      <stop
         style="stop-color:#660000;stop-opacity:1"
         offset="1"
         id="stop2855" />
    </linearGradient>
    <linearGradient
       inkscape:collect="always"
       id="linearGradient2742-3">
      <stop
         style="stop-color:#420d0d;stop-opacity:1"
         offset="0"
         id="stop2738" />
      <stop
         style="stop-color:#a20000;stop-opacity:1"
         offset="1"
         id="stop2740" />
    </linearGradient>
    <inkscape:path-effect
       effect="copy_rotate"
       starting_point="36.997043,326.3416"
       origin="-63.002957,326.3416"
       id="path-effect2676"
       is_visible="true"
       lpeversion="1"
       method="normal"
       num_copies="15"
       starting_angle="0"
       rotation_angle="24"
       gap="-0.01"
       copies_to_360="true"
       mirror_copies="false"
       split_items="false"
       lpesatellites=""
       link_styles="false" />
    <inkscape:path-effect
       split_items="false"
       mirror_copies="false"
       copies_to_360="true"
       gap="-0.01"
       rotation_angle="15.652174"
       starting_angle="0"
       num_copies="23"
       method="normal"
       lpeversion="1"
       is_visible="true"
       id="path-effect2674"
       origin="-63.002957,326.3416"
       starting_point="36.997043,326.3416"
       effect="copy_rotate"
       lpesatellites=""
       link_styles="false" />
    <inkscape:path-effect
       effect="copy_rotate"
       starting_point="36.997043,326.3416"
       origin="-63.002957,326.3416"
       id="path-effect2344"
       is_visible="true"
       lpeversion="1"
       method="normal"
       num_copies="15"
       starting_angle="0"
       rotation_angle="24"
       gap="-0.01"
       copies_to_360="true"
       mirror_copies="false"
       split_items="false"
       lpesatellites=""
       link_styles="false" />
    <inkscape:path-effect
       split_items="false"
       mirror_copies="false"
       copies_to_360="true"
       gap="-0.01"
       rotation_angle="15.652174"
       starting_angle="0"
       num_copies="23"
       method="normal"
       lpeversion="1"
       is_visible="true"
       id="path-effect2342"
       origin="-63.002957,326.3416"
       starting_point="36.997043,326.3416"
       effect="copy_rotate"
       lpesatellites=""
       link_styles="false" />
    <inkscape:path-effect
       effect="simplify"
       id="path-effect2120"
       is_visible="true"
       lpeversion="1"
       steps="1"
       threshold="0.00114754"
       smooth_angles="360"
       helper_size="0"
       simplify_individual_paths="false"
       simplify_just_coalesce="false" />
    <inkscape:path-effect
       effect="simplify"
       id="path-effect2116"
       is_visible="true"
       lpeversion="1"
       steps="1"
       threshold="0.00035533"
       smooth_angles="360"
       helper_size="0"
       simplify_individual_paths="false"
       simplify_just_coalesce="false" />
    <inkscape:path-effect
       effect="simplify"
       id="path-effect2112"
       is_visible="true"
       lpeversion="1"
       steps="1"
       threshold="0.00035533"
       smooth_angles="360"
       helper_size="0"
       simplify_individual_paths="false"
       simplify_just_coalesce="false" />
    <inkscape:path-effect
       effect="simplify"
       id="path-effect1942"
       is_visible="true"
       lpeversion="1"
       steps="1"
       threshold="0.00035533"
       smooth_angles="360"
       helper_size="0"
       simplify_individual_paths="false"
       simplify_just_coalesce="false" />
    <inkscape:path-effect
       effect="simplify"
       id="path-effect1832"
       is_visible="true"
       lpeversion="1"
       steps="1"
       threshold="0.00035533"
       smooth_angles="360"
       helper_size="0"
       simplify_individual_paths="false"
       simplify_just_coalesce="false" />
    <inkscape:path-effect
       effect="powerstroke"
       id="path-effect1826"
       is_visible="true"
       lpeversion="1"
       offset_points="2.152399,0.13360669"
       sort_points="true"
       interpolator_type="CentripetalCatmullRom"
       interpolator_beta="0.75"
       start_linecap_type="zerowidth"
       linejoin_type="spiro"
       miter_limit="4"
       scale_width="1"
       end_linecap_type="zerowidth"
       not_jump="false"
       message="&lt;b&gt;Ctrl + клацніть&lt;/b&gt; на наявному вузлі і пересуньте його" />
    <inkscape:path-effect
       effect="simplify"
       id="path-effect1824"
       is_visible="true"
       lpeversion="1"
       steps="1"
       threshold="0.0031393987"
       smooth_angles="0"
       helper_size="0"
       simplify_individual_paths="false"
       simplify_just_coalesce="false"
       step="1" />
    <linearGradient
       inkscape:collect="always"
       id="linearGradient1698">
      <stop
         style="stop-color:#420d0d;stop-opacity:1"
         offset="0"
         id="stop1694" />
      <stop
         style="stop-color:#710000;stop-opacity:1"
         offset="1"
         id="stop1696" />
    </linearGradient>
    <inkscape:path-effect
       effect="powerstroke"
       id="path-effect1448"
       is_visible="true"
       lpeversion="1"
       offset_points="1.9490807,0.75579357"
       sort_points="true"
       interpolator_type="CentripetalCatmullRom"
       interpolator_beta="0.75"
       start_linecap_type="zerowidth"
       linejoin_type="spiro"
       miter_limit="4"
       scale_width="1"
       end_linecap_type="zerowidth"
       not_jump="false"
       message="&lt;b&gt;Ctrl + клацніть&lt;/b&gt; на наявному вузлі і пересуньте його" />
    <inkscape:path-effect
       effect="simplify"
       id="path-effect1446"
       is_visible="true"
       lpeversion="1"
       steps="1"
       threshold="0.0031393987"
       smooth_angles="0"
       helper_size="0"
       simplify_individual_paths="false"
       simplify_just_coalesce="false"
       step="1" />
    <inkscape:path-effect
       effect="powerstroke"
       id="path-effect1441"
       is_visible="true"
       lpeversion="1"
       offset_points="1,0.5"
       sort_points="true"
       interpolator_type="CentripetalCatmullRom"
       interpolator_beta="0.75"
       start_linecap_type="zerowidth"
       linejoin_type="spiro"
       miter_limit="4"
       scale_width="1"
       end_linecap_type="zerowidth"
       not_jump="false"
       message="&lt;b&gt;Ctrl + клацніть&lt;/b&gt; на наявному вузлі і пересуньте його" />
    <inkscape:path-effect
       effect="simplify"
       id="path-effect1439"
       is_visible="true"
       lpeversion="1"
       steps="1"
       threshold="0.0031393987"
       smooth_angles="0"
       helper_size="0"
       simplify_individual_paths="false"
       simplify_just_coalesce="false"
       step="1" />
    <inkscape:path-effect
       effect="powerstroke"
       id="path-effect1434"
       is_visible="true"
       lpeversion="1"
       offset_points="3.0604747,0.75579357"
       sort_points="true"
       interpolator_type="CentripetalCatmullRom"
       interpolator_beta="0.75"
       start_linecap_type="zerowidth"
       linejoin_type="spiro"
       miter_limit="4"
       scale_width="1"
       end_linecap_type="zerowidth"
       not_jump="false"
       message="&lt;b&gt;Ctrl + клацніть&lt;/b&gt; на наявному вузлі і пересуньте його" />
    <inkscape:path-effect
       effect="simplify"
       id="path-effect1432"
       is_visible="true"
       lpeversion="1"
       steps="1"
       threshold="0.0031393987"
       smooth_angles="0"
       helper_size="0"
       simplify_individual_paths="false"
       simplify_just_coalesce="false"
       step="1" />
    <inkscape:path-effect
       effect="powerstroke"
       id="path-effect1427"
       is_visible="true"
       lpeversion="1"
       offset_points="3.3727266,0.75579357"
       sort_points="true"
       interpolator_type="CentripetalCatmullRom"
       interpolator_beta="0.75"
       start_linecap_type="zerowidth"
       linejoin_type="spiro"
       miter_limit="4"
       scale_width="1"
       end_linecap_type="zerowidth"
       not_jump="false"
       message="&lt;b&gt;Ctrl + клацніть&lt;/b&gt; на наявному вузлі і пересуньте його" />
    <inkscape:path-effect
       effect="simplify"
       id="path-effect1425"
       is_visible="true"
       lpeversion="1"
       steps="1"
       threshold="0.0031393987"
       smooth_angles="0"
       helper_size="0"
       simplify_individual_paths="false"
       simplify_just_coalesce="false"
       step="1" />
    <inkscape:path-effect
       effect="powerstroke"
       id="path-effect1420"
       is_visible="true"
       lpeversion="1"
       offset_points="5.4139301,0.75579357"
       sort_points="true"
       interpolator_type="CentripetalCatmullRom"
       interpolator_beta="0.75"
       start_linecap_type="zerowidth"
       linejoin_type="spiro"
       miter_limit="4"
       scale_width="1"
       end_linecap_type="zerowidth"
       not_jump="false"
       message="&lt;b&gt;Ctrl + клацніть&lt;/b&gt; на наявному вузлі і пересуньте його" />
    <inkscape:path-effect
       effect="simplify"
       id="path-effect1418"
       is_visible="true"
       lpeversion="1"
       steps="1"
       threshold="0.0031393987"
       smooth_angles="0"
       helper_size="0"
       simplify_individual_paths="false"
       simplify_just_coalesce="false"
       step="1" />
    <inkscape:path-effect
       effect="powerstroke"
       id="path-effect1413"
       is_visible="true"
       lpeversion="1"
       offset_points="3.1641313,0.75579357"
       sort_points="true"
       interpolator_type="CentripetalCatmullRom"
       interpolator_beta="0.75"
       start_linecap_type="zerowidth"
       linejoin_type="spiro"
       miter_limit="4"
       scale_width="1"
       end_linecap_type="zerowidth"
       not_jump="false"
       message="&lt;b&gt;Ctrl + клацніть&lt;/b&gt; на наявному вузлі і пересуньте його" />
    <inkscape:path-effect
       effect="simplify"
       id="path-effect1411"
       is_visible="true"
       lpeversion="1"
       steps="1"
       threshold="0.0031393987"
       smooth_angles="0"
       helper_size="0"
       simplify_individual_paths="false"
       simplify_just_coalesce="false"
       step="1" />
    <inkscape:path-effect
       effect="powerstroke"
       id="path-effect1406"
       is_visible="true"
       lpeversion="1"
       offset_points="2.5275057,0.75579357"
       sort_points="true"
       interpolator_type="CentripetalCatmullRom"
       interpolator_beta="0.75"
       start_linecap_type="zerowidth"
       linejoin_type="spiro"
       miter_limit="4"
       scale_width="1"
       end_linecap_type="zerowidth"
       not_jump="false"
       message="&lt;b&gt;Ctrl + клацніть&lt;/b&gt; на наявному вузлі і пересуньте його" />
    <inkscape:path-effect
       effect="simplify"
       id="path-effect1404"
       is_visible="true"
       lpeversion="1"
       steps="1"
       threshold="0.0031393987"
       smooth_angles="0"
       helper_size="0"
       simplify_individual_paths="false"
       simplify_just_coalesce="false"
       step="1" />
    <inkscape:path-effect
       effect="powerstroke"
       id="path-effect1399"
       is_visible="true"
       lpeversion="1"
       offset_points="2.0292805,0.75579357"
       sort_points="true"
       interpolator_type="CentripetalCatmullRom"
       interpolator_beta="0.75"
       start_linecap_type="zerowidth"
       linejoin_type="spiro"
       miter_limit="4"
       scale_width="1"
       end_linecap_type="zerowidth"
       not_jump="false"
       message="&lt;b&gt;Ctrl + клацніть&lt;/b&gt; на наявному вузлі і пересуньте його" />
    <inkscape:path-effect
       effect="simplify"
       id="path-effect1397"
       is_visible="true"
       lpeversion="1"
       steps="1"
       threshold="0.0031393987"
       smooth_angles="0"
       helper_size="0"
       simplify_individual_paths="false"
       simplify_just_coalesce="false"
       step="1" />
    <inkscape:path-effect
       effect="powerstroke"
       id="path-effect1392"
       is_visible="true"
       lpeversion="1"
       offset_points="1.6076945,0.75579357"
       sort_points="true"
       interpolator_type="CentripetalCatmullRom"
       interpolator_beta="0.75"
       start_linecap_type="zerowidth"
       linejoin_type="spiro"
       miter_limit="4"
       scale_width="1"
       end_linecap_type="zerowidth"
       not_jump="false"
       message="&lt;b&gt;Ctrl + клацніть&lt;/b&gt; на наявному вузлі і пересуньте його" />
    <inkscape:path-effect
       effect="simplify"
       id="path-effect1390"
       is_visible="true"
       lpeversion="1"
       steps="1"
       threshold="0.0031393987"
       smooth_angles="0"
       helper_size="0"
       simplify_individual_paths="false"
       simplify_just_coalesce="false"
       step="1" />
    <inkscape:path-effect
       effect="simplify"
       id="path-effect1387"
       is_visible="true"
       lpeversion="1"
       steps="1"
       threshold="0.00035533"
       smooth_angles="360"
       helper_size="0"
       simplify_individual_paths="false"
       simplify_just_coalesce="false" />
    <inkscape:path-effect
       effect="simplify"
       id="path-effect1383"
       is_visible="true"
       lpeversion="1"
       steps="1"
       threshold="0.00035533"
       smooth_angles="360"
       helper_size="0"
       simplify_individual_paths="false"
       simplify_just_coalesce="false" />
    <inkscape:path-effect
       effect="simplify"
       id="path-effect1379"
       is_visible="true"
       lpeversion="1"
       steps="1"
       threshold="0.00035533"
       smooth_angles="360"
       helper_size="0"
       simplify_individual_paths="false"
       simplify_just_coalesce="false" />
    <inkscape:path-effect
       effect="copy_rotate"
       starting_point="0,0"
       origin="-63.002957,326.3416"
       id="path-effect4346"
       is_visible="true"
       lpeversion="1"
       method="normal"
       num_copies="12"
       starting_angle="0"
       rotation_angle="60"
       gap="-0.01"
       copies_to_360="true"
       mirror_copies="false"
       split_items="false"
       lpesatellites=""
       link_styles="false" />
    <inkscape:path-effect
       effect="copy_rotate"
       starting_point="0,0"
       origin="-63.002957,326.3416"
       id="path-effect4327"
       is_visible="true"
       lpeversion="1"
       method="normal"
       num_copies="15"
       starting_angle="0"
       rotation_angle="60"
       gap="-0.01"
       copies_to_360="true"
       mirror_copies="false"
       split_items="false"
       lpesatellites=""
       link_styles="false" />
    <inkscape:path-effect
       split_items="false"
       mirror_copies="false"
       copies_to_360="true"
       gap="-0.01"
       rotation_angle="60"
       starting_angle="0"
       num_copies="23"
       method="normal"
       lpeversion="1"
       is_visible="true"
       id="path-effect4308"
       origin="-63.002957,326.3416"
       starting_point="0,0"
       effect="copy_rotate"
       lpesatellites=""
       link_styles="false" />
    <linearGradient
       inkscape:collect="always"
       xlink:href="#linearGradient2742-3"
       id="linearGradient2736"
       x1="-1819.7631"
       y1="-1060.9764"
       x2="-1802.9346"
       y2="-1073.9764"
       gradientUnits="userSpaceOnUse"
       gradientTransform="matrix(0.26458333,0,0,0.26458333,405.64226,555.10649)" />
    <linearGradient
       inkscape:collect="always"
       xlink:href="#linearGradient2857"
       id="linearGradient2893"
       gradientUnits="userSpaceOnUse"
       x1="-1943.3391"
       y1="-1138.0605"
       x2="-1936.0939"
       y2="-1154.0593" />
    <linearGradient
       inkscape:collect="always"
       xlink:href="#linearGradient3177"
       id="linearGradient3166"
       x1="-556.76093"
       y1="-281.59052"
       x2="-434.96619"
       y2="-281.59052"
       gradientUnits="userSpaceOnUse"
       gradientTransform="translate(0.92604191,2.1166666)" />
    <radialGradient
       inkscape:collect="always"
       xlink:href="#linearGradient1698"
       id="radialGradient3238"
       cx="502.15793"
       cy="-285.95132"
       fx="502.15793"
       fy="-285.95132"
       r="1.8732091"
       gradientUnits="userSpaceOnUse" />
    <linearGradient
       inkscape:collect="always"
       xlink:href="#linearGradient1"
       id="linearGradient2"
       x1="41.483685"
       y1="86.772324"
       x2="131.78056"
       y2="25.653578"
       gradientUnits="userSpaceOnUse"
       gradientTransform="matrix(0.47200727,0,0,0.47200727,-25.92477,-5.0148375)" />
    <linearGradient
       inkscape:collect="always"
       xlink:href="#linearGradient3"
       id="linearGradient4"
       x1="61.522793"
       y1="37.583866"
       x2="124.16711"
       y2="37.583866"
       gradientUnits="userSpaceOnUse"
       gradientTransform="matrix(0.47200727,0,0,0.47200727,-25.92477,-5.0148375)" />
  </defs>
  <sodipodi:namedview
     inkscape:snap-global="false"
     inkscape:snap-midpoints="true"
     inkscape:snap-intersection-paths="true"
     inkscape:guide-bbox="true"
     showguides="true"
     inkscape:window-maximized="1"
     inkscape:window-y="-8"
     inkscape:window-x="-8"
     inkscape:window-height="1137"
     inkscape:window-width="1920"
     showgrid="false"
     inkscape:document-rotation="0"
     inkscape:current-layer="g1513"
     inkscape:document-units="mm"
     inkscape:cy="82.124998"
     inkscape:cx="85.124998"
     inkscape:zoom="4.0000001"
     inkscape:pageshadow="2"
     inkscape:pageopacity="0.0"
     borderopacity="1.0"
     bordercolor="#666666"
     pagecolor="#ffffff"
     id="base"
     inkscape:showpageshadow="2"
     inkscape:pagecheckerboard="0"
     inkscape:deskcolor="#d1d1d1" />
  <metadata
     id="metadata933">
    <rdf:RDF>
      <cc:Work
         rdf:about="">
        <dc:format>image/svg+xml</dc:format>
        <dc:type
           rdf:resource="http://purl.org/dc/dcmitype/StillImage" />
      </cc:Work>
    </rdf:RDF>
  </metadata>
  <g
     id="layer1"
     inkscape:groupmode="layer"
     inkscape:label="Слой 1">
    <g
       transform="translate(7.0943854,1.6123597)"
       id="g1513">
      <path
         sodipodi:nodetypes="sssssssssssssscsssssssscssssssssssccsssssscccccsssssscssscsssssssscssssssssssssssssssssccccss"
         d="m 5.4555638,0.87739754 c -0.22509,-0.0046 -0.356119,0.01986 -0.356119,0.08049 0,0.07043 0.399673,0.45102696 0.8881,0.84565796 1.677184,1.355104 3.288791,3.172197 2.568442,2.895777 -0.590397,-0.22656 -2.297,-0.72411 -2.710888,-0.790291 -0.387905,-0.06203 -0.495883,-0.03955 -0.495883,0.103178 0,0.100358 0.04166,0.224109 0.09269,0.275137 0.05103,0.05103 0.32383,0.634008 0.606133,1.295441 0.282304,0.661434 0.591885,1.242239 0.687845,1.290562 0.155451,0.07828 4.0615302,1.361107 4.4517192,1.462035 0.296469,0.07668 0.149246,-0.294307 -0.585886,-1.476426 -0.40579,-0.652522 -0.6968902,-1.228806 -0.6468672,-1.280562 0.1228122,-0.127059 2.2022142,0.2378 3.5116662,0.616134 1.540688,0.44514 3.396244,1.200265 4.68344,1.905963 0.618184,0.338921 1.166117,0.61969 1.217631,0.623939 0.220136,0.01822 0.04773,-0.284304 -0.671501,-1.178361 -1.85936,-2.311312 -4.840212,-4.363079 -8.048757,-5.540076 C 9.1706388,1.4642975 6.4309598,0.89742754 5.4555658,0.87739354 Z M 11.482253,6.6033375 c -0.08939,0.0021 -0.138545,0.01859 -0.138545,0.05195 0,0.02539 0.307631,0.661382 0.683698,1.413253 0.376068,0.751864 0.928414,2.0976655 1.227388,2.9906595 0.298969,0.892991 0.584693,1.690056 0.634914,1.771322 0.05746,0.09297 0.447397,0.147807 1.051769,0.148057 0.528271,2.5e-4 1.466328,0.06159 2.08451,0.13635 1.140191,0.137882 4.276123,0.882652 4.660512,1.106893 0.272669,0.159085 0.647113,0.164035 0.647113,0.0085 0,-0.214292 -0.731319,-1.971097 -1.249585,-3.001881 -0.359197,-0.714403 -0.644949,-1.101858 -1.004448,-1.3622735 -0.677449,-0.490742 -2.440247,-1.392197 -3.807293,-1.946943 -1.563655,-0.63453 -4.164264,-1.330606 -4.790033,-1.31593 z m -4.0404772,2.251106 c -0.08643,2.49e-4 -0.144691,0.01127 -0.168546,0.03512 -0.04749,0.04749 -0.01496,0.411018 0.07244,0.807608 0.0874,0.3965855 0.186051,1.8870165 0.219281,3.3121435 l 0.06049,2.591124 1.578139,-0.06952 c 0.8679792,-0.03823 2.0277252,-0.01642 2.5772212,0.04854 1.651601,0.195261 1.630822,0.203261 1.580336,-0.602961 C 13.260354,13.367033 12.5774,10.703779 12.157652,10.284032 11.742797,9.8691765 8.2772898,8.8521145 7.4417708,8.8544365 Z m 13.2767872,0.604999 c -0.284956,-0.126779 0.614303,0.9137685 0.926716,1.4614625 1.664439,3.441076 2.613055,6.864258 2.628802,10.339605 2.965211,0.0917 5.577431,0.890881 7.881317,1.544496 C 30.222939,17.171333 26.024671,11.658948 20.718563,9.4594425 Z M 5.3257998,9.9440185 c -0.06772,-0.0039 -0.155375,0.0029 -0.271967,0.0122 -1.504741,0.1204375 -4.43163899,1.3542345 -5.95790399,2.5113655 -1.71927301,1.303457 -3.20338601,3.121699 -4.11633601,5.043218 -1.768842,3.722951 -1.764833,7.952905 0.01098,11.685308 1.019782,2.143384 2.264186,3.697373 4.02047601,5.020777 1.770517,1.334124 4.02750199,2.298503 6.08839999,2.601126 0.515154,0.07564 1.077136,0.161485 1.248853,0.190986 0.585237,0.100481 2.557293,-0.063 3.8029032,-0.315384 3.507094,-0.710616 6.627796,-2.867245 8.616594,-5.954489 0.871594,-1.352999 1.817421,-3.69107 1.817421,-4.492698 0,-0.311766 -0.0019,-0.312154 -0.875172,-0.226111 -2.461301,0.242535 -6.052062,1.223259 -8.582445,2.344281 -0.77136,0.341728 -1.4574952,0.602422 -1.5247232,0.579058 -0.06723,-0.02335 0.212691,-0.599542 0.6219872,-1.280318 0.409302,-0.680762 0.744189,-1.312993 0.744189,-1.404959 10e-7,-0.226356 -0.908579,-0.218439 -2.5074612,0.02171 -2.791243,0.41924 -5.320171,1.120464 -7.68800499,2.13183 -1.256534,0.536695 -1.543748,0.626366 -1.543748,0.481734 10e-7,-0.03851 0.399523,-0.530245 0.887856,-1.092745 C 2.9247658,24.567516 4.6618068,20.918309 5.4194668,16.66246 5.6509628,15.361995 5.7902828,11.306681 5.6319198,10.48064 5.5518098,10.062787 5.5289618,9.9556625 5.3258038,9.9440235 Z M 14.880498,14.42379 c -0.337482,0.0038 -0.56153,0.02958 -0.609547,0.08147 -0.107424,0.116104 -0.117065,0.428865 -0.03585,1.158116 0.158547,1.423711 -0.116922,5.199013 -0.39173,5.368845 -0.0515,0.03183 -0.120013,-0.809059 -0.152204,-1.868644 -0.03645,-1.199252 -0.11357,-1.99292 -0.204158,-2.102072 -0.08003,-0.09644 -0.552876,-0.242512 -1.050792,-0.324897 -1.248043,-0.206499 -4.0608212,-0.315666 -4.5788012,-0.177572 -0.41885,0.111668 -0.328587,-0.223714 -0.7698,1.419838 -0.826983,3.080571 -2.066968,5.660099 -3.877541,7.942654 -0.334629,0.421861 -0.608329,0.807824 -0.608329,0.857611 0,0.122197 0.226612,0.0468 1.685951,-0.56052 1.504297,-0.626019 3.468878,-1.192977 4.99541,-1.441791 1.2400822,-0.202123 3.3806352,-0.24715 3.4880072,-0.07342 0.03763,0.06088 -0.102882,0.488381 -0.312213,0.950055 -0.209336,0.461675 -0.578353,1.062734 -0.531615,1.044972 0.119422,-0.04538 0.886103,-0.304104 1.627532,-0.58153 1.732999,-0.648453 3.293737,-1.090452 4.782471,-1.354469 1.196369,-0.212168 3.779883,-0.282892 5.653011,-0.169766 0.133951,-2.315183 0.244004,-5.789013 -1.43325,-8.756114 -0.539679,-0.288827 -2.064983,-0.744268 -3.271905,-0.976887 -1.35935,-0.261992 -3.392197,-0.447207 -4.404644,-0.435879 z"
         style="fill:url(#linearGradient2);fill-opacity:1;stroke-width:0.124885"
         id="path1583" />
      <path
         style="fill:url(#linearGradient4);stroke-width:0.124885"
         d="m 3.1144488,25.651427 c 0,-0.04979 0.273788,-0.435681 0.608417,-0.857542 1.810573,-2.282557 3.067698,-4.857578 3.877616,-7.942679 0.336569,-1.282057 0.35071,-1.308145 0.76956,-1.419812 0.517981,-0.138095 3.3309602,-0.02912 4.5790042,0.177376 0.497916,0.08238 0.970787,0.228697 1.05082,0.325137 0.09059,0.109152 0.167629,0.902605 0.204077,2.101858 0.03219,1.059585 0.100694,1.900471 0.152199,1.868639 0.274808,-0.169833 0.550228,-3.945103 0.391681,-5.368814 -0.08121,-0.729251 -0.0715,-1.042045 0.03592,-1.15815 0.192069,-0.207565 3.201701,0.0053 5.014166,0.35461 1.206923,0.232619 2.732275,0.688007 3.271944,0.976833 0.312441,0.167213 0.677047,1.222504 1.080415,3.127053 0.163291,0.771005 0.330089,1.43502 0.370663,1.475594 0.139464,0.139464 0.07209,-1.530338 -0.110681,-2.742806 -0.373145,-2.475508 -1.174345,-4.885695 -2.252324,-6.7754955 -0.312412,-0.547693 -0.552272,-1.073698 -0.533024,-1.168902 0.02554,-0.126385 0.302571,-0.03205 1.02646,0.349465 3.945131,2.0793155 7.307404,5.6852005 9.052245,9.7081325 0.560844,1.293092 1.07385,2.886093 0.964604,2.995334 -0.03979,0.03979 -0.684227,-0.130868 -1.432047,-0.379286 -1.609153,-0.534543 -3.157979,-0.910101 -4.237421,-1.027489 l -0.780535,-0.08488 v 1.711456 1.711456 l -1.155186,-0.10304 c -1.879207,-0.167619 -4.8926,-0.104941 -6.213045,0.129231 -1.488734,0.264018 -3.049393,0.706034 -4.782392,1.354487 -0.741429,0.277427 -1.376968,0.475495 -1.412307,0.440156 -0.03535,-0.03535 0.107014,-0.441993 0.316349,-0.903668 0.20933,-0.461675 0.349819,-0.889223 0.31219,-0.950103 -0.107372,-0.173732 -2.247939,-0.128617 -3.4880202,0.07351 -1.526533,0.248814 -3.491112,0.815878 -4.995409,1.441897 -1.459343,0.607313 -1.685953,0.68264 -1.685953,0.560442 z M 12.293518,14.451814 c -0.549497,-0.06496 -1.709243,-0.08684 -2.5772212,-0.04862 l -1.578133,0.0695 -0.0604,-2.591145 c -0.03323,-1.425127 -0.131916,-2.9156225 -0.219318,-3.3122075 -0.0874,-0.39659 -0.120055,-0.759927 -0.07256,-0.80742 0.25445,-0.254449 4.4266782,0.936632 4.8844492,1.394403 0.419747,0.419747 1.102902,3.0829305 1.203685,4.6923955 0.05049,0.806221 0.0711,0.798353 -1.580497,0.603093 z m 9.905685,-1.357635 c -0.384389,-0.224241 -3.520314,-0.969111 -4.660505,-1.106994 -0.618183,-0.07476 -1.556189,-0.136084 -2.084459,-0.136278 -0.604373,-2.5e-4 -0.994345,-0.05513 -1.051807,-0.148106 -0.05022,-0.08127 -0.335932,-0.878387 -0.634902,-1.7713775 -0.298974,-0.892996 -0.851284,-2.238791 -1.227351,-2.990656 -0.376067,-0.75187 -0.683759,-1.387805 -0.683759,-1.413195 0,-0.266901 3.14168,0.538773 4.928714,1.263951 1.367046,0.554745 3.129758,1.456137 3.807206,1.946878 0.3595,0.260416 0.645266,0.648033 1.004464,1.3624355 0.518263,1.030783 1.249516,2.787528 1.249516,3.001819 0,0.155499 -0.374448,0.15059 -0.647117,-0.0085 z M 18.662666,6.9727365 c -1.287197,-0.705698 -3.142771,-1.460844 -4.683459,-1.905984 -1.309452,-0.378333 -3.388866,-0.743143 -3.511678,-0.616083 -0.05002,0.05175 0.241059,0.627987 0.646848,1.280508 0.735133,1.182119 0.882404,1.553244 0.585936,1.476562 -0.390189,-0.10093 -4.2963472,-1.383864 -4.4517982,-1.462147 -0.09596,-0.04832 -0.405449,-0.629034 -0.687752,-1.290467 -0.282303,-0.661434 -0.555029,-1.244358 -0.606058,-1.295387 -0.05103,-0.05103 -0.09278,-0.174892 -0.09278,-0.275251 0,-0.142725 0.108037,-0.165202 0.495942,-0.103171 0.413889,0.06618 2.12055,0.563657 2.710946,0.790216 0.720349,0.276421 -0.891424,-1.54059 -2.568607,-2.89569396 -0.488428,-0.394631 -0.888053,-0.775145 -0.888053,-0.845578 0,-0.323386 3.730344,0.381283 5.5478082,1.047989 3.208545,1.17699696 6.189521,3.22884596 8.04888,5.54015696 0.719231,0.894057 0.891589,1.196519 0.671454,1.178295 -0.05151,-0.0042 -0.599449,-0.285045 -1.217632,-0.623965 z"
         id="path1515-9"
         sodipodi:nodetypes="ssssssssscssssssccsssscccsssssssssssscsssssscscssssssssccsssssssssssscsscs" />
      <text
         xml:space="preserve"
         id="text3210"
         style="font-style:normal;font-weight:normal;font-size:10.5833px;line-height:1.25;font-family:sans-serif;letter-spacing:0px;word-spacing:0px;white-space:pre;shape-inside:url(#rect3212);display:inline;fill:#000000;fill-opacity:1;stroke:none"><tspan
           x="-584.63672"
           y="-196.44414"
           id="tspan2"><tspan
             dx="0 7.2346773 6.5215445 6.6920776"
             id="tspan1">STEA</tspan></tspan></text>
    </g>
  </g>
</svg>
