<?xml version="1.0" encoding="UTF-8" standalone="no"?>
<!-- Created with Inkscape (http://www.inkscape.org/) -->

<svg
   width="100mm"
   height="100mm"
   viewBox="0 0 100 100"
   version="1.1"
   id="svg5"
   xml:space="preserve"
   inkscape:version="1.3 (0e150ed6c4, 2023-07-21)"
   sodipodi:docname="menu.svg"
   xmlns:inkscape="http://www.inkscape.org/namespaces/inkscape"
   xmlns:sodipodi="http://sodipodi.sourceforge.net/DTD/sodipodi-0.dtd"
   xmlns="http://www.w3.org/2000/svg"
   xmlns:svg="http://www.w3.org/2000/svg"><sodipodi:namedview
     id="namedview7"
     pagecolor="#ffffff"
     bordercolor="#666666"
     borderopacity="1.0"
     inkscape:showpageshadow="2"
     inkscape:pageopacity="0.0"
     inkscape:pagecheckerboard="0"
     inkscape:deskcolor="#d1d1d1"
     inkscape:document-units="mm"
     showgrid="false"
     showguides="true"
     inkscape:zoom="1.0340089"
     inkscape:cx="27.562624"
     inkscape:cy="162.95797"
     inkscape:window-width="1920"
     inkscape:window-height="1017"
     inkscape:window-x="1912"
     inkscape:window-y="-8"
     inkscape:window-maximized="1"
     inkscape:current-layer="layer1"><sodipodi:guide
       position="5.7086283,46.607445"
       orientation="1,0"
       id="guide304"
       inkscape:locked="false" /><sodipodi:guide
       position="94.291371,27.030175"
       orientation="1,0"
       id="guide306"
       inkscape:locked="false" /><sodipodi:guide
       position="65.101986,7.4528449"
       orientation="0,-1"
       id="guide308"
       inkscape:locked="false" /><sodipodi:guide
       position="53.837492,92.436054"
       orientation="0,-1"
       id="guide310"
       inkscape:locked="false" /><sodipodi:guide
       position="55.840302,14.660224"
       orientation="0,-1"
       id="guide312"
       inkscape:locked="false" /><sodipodi:guide
       position="59.399216,85.383395"
       orientation="0,-1"
       id="guide314"
       inkscape:locked="false" /></sodipodi:namedview><defs
     id="defs2" /><g
     inkscape:label="Слой 1"
     inkscape:groupmode="layer"
     id="layer1"><path
       style="fill:#000000;stroke-width:0.921249"
       d="m 12.808127,84.865661 c -2.353769,-0.81244 -3.6568499,-2.72686 -3.6568499,-5.372448 0,-1.769223 0.455167,-2.959495 1.5506479,-4.05498 1.918651,-1.918649 -0.7879909,-1.794952 39.27428,-1.794952 40.184445,0 37.390204,-0.131021 39.289802,1.842277 2.11645,2.19857 2.109255,5.937865 -0.01548,8.062643 -1.919497,1.919487 0.80308,1.795939 -39.379458,1.786993 -34.412271,-0.0074 -35.774822,-0.02497 -37.062908,-0.469533 z m 0,-29.24966 C 10.454358,54.80356 9.1512771,52.88914 9.1512771,50.243552 c 0,-1.769222 0.455167,-2.959494 1.5506479,-4.054979 1.918651,-1.918649 -0.7879909,-1.794953 39.27428,-1.794953 40.184445,0 37.390204,-0.13102 39.289802,1.842277 2.11645,2.198571 2.109255,5.937866 -0.01548,8.062644 -1.919497,1.919487 0.80308,1.795938 -39.379458,1.786993 -34.412271,-0.0074 -35.774822,-0.02497 -37.062908,-0.469533 z m 0,-29.249663 c -2.353769,-0.812441 -3.6568499,-2.726852 -3.6568499,-5.37244 0,-1.769231 0.455167,-2.959503 1.5506479,-4.054988 1.918651,-1.918649 -0.7879909,-1.794944 39.27428,-1.794944 40.184445,0 37.390204,-0.13102 39.289802,1.842268 2.11645,2.19857 2.109255,5.937875 -0.01548,8.062644 -1.919497,1.919487 0.80308,1.795938 -39.379458,1.786993 -34.412271,-0.0074 -35.774822,-0.02497 -37.062908,-0.469533 z"
       id="path1" /></g></svg>
