<?xml version="1.0" encoding="UTF-8" standalone="no"?>
<!-- Created with Inkscape (http://www.inkscape.org/) -->

<svg
   width="100mm"
   height="100mm"
   viewBox="0 0 100 100"
   version="1.1"
   id="svg5"
   xml:space="preserve"
   inkscape:version="1.3 (0e150ed6c4, 2023-07-21)"
   sodipodi:docname="phone.svg"
   xmlns:inkscape="http://www.inkscape.org/namespaces/inkscape"
   xmlns:sodipodi="http://sodipodi.sourceforge.net/DTD/sodipodi-0.dtd"
   xmlns="http://www.w3.org/2000/svg"
   xmlns:svg="http://www.w3.org/2000/svg"><sodipodi:namedview
     id="namedview7"
     pagecolor="#ffffff"
     bordercolor="#666666"
     borderopacity="1.0"
     inkscape:showpageshadow="2"
     inkscape:pageopacity="0.0"
     inkscape:pagecheckerboard="0"
     inkscape:deskcolor="#d1d1d1"
     inkscape:document-units="mm"
     showgrid="false"
     showguides="true"
     inkscape:zoom="1.1893044"
     inkscape:cx="120.65876"
     inkscape:cy="161.85932"
     inkscape:window-width="1920"
     inkscape:window-height="1137"
     inkscape:window-x="-8"
     inkscape:window-y="-8"
     inkscape:window-maximized="1"
     inkscape:current-layer="layer1"><sodipodi:guide
       position="5.7086283,46.607445"
       orientation="1,0"
       id="guide304"
       inkscape:locked="false" /><sodipodi:guide
       position="94.291371,27.030175"
       orientation="1,0"
       id="guide306"
       inkscape:locked="false" /><sodipodi:guide
       position="65.101986,7.4528449"
       orientation="0,-1"
       id="guide308"
       inkscape:locked="false" /><sodipodi:guide
       position="53.837492,92.436054"
       orientation="0,-1"
       id="guide310"
       inkscape:locked="false" /><sodipodi:guide
       position="55.840302,14.660224"
       orientation="0,-1"
       id="guide312"
       inkscape:locked="false" /><sodipodi:guide
       position="59.399216,85.383395"
       orientation="0,-1"
       id="guide314"
       inkscape:locked="false" /></sodipodi:namedview><defs
     id="defs2" /><g
     inkscape:label="Слой 1"
     inkscape:groupmode="layer"
     id="layer1"><path
       style="fill:#000000;stroke-width:0.723995"
       d="M 71.843102,85.177 C 71.316321,85.139302 69.93711,84.971015 68.77819,84.80303 53.979262,82.65793 42.352944,76.791993 32.249954,66.373093 21.39407,55.177756 15.101985,40.093417 14.974126,24.956857 c -0.02131,-2.523146 0.01696,-2.865311 0.417811,-3.735362 1.123814,-2.439239 1.584941,-2.627891 11.753454,-4.808466 4.617236,-0.990138 8.552334,-1.800251 8.744661,-1.800251 1.381843,0 3.708214,1.271166 4.490914,2.453906 0.662491,1.001092 7.163027,16.219471 7.426242,17.385548 0.421122,1.86562 -0.233407,3.726198 -1.856403,5.277049 -0.509127,0.486497 -1.97642,1.747456 -3.260649,2.802133 l -2.334962,1.917595 0.69475,1.124785 c 2.614982,4.233596 6.509348,8.450027 10.640288,11.520245 1.758458,1.30693 3.491658,2.452107 3.887905,2.568857 0.114917,0.03386 1.287226,-1.231449 2.605132,-2.811794 1.317906,-1.580346 2.603093,-3.059325 2.855973,-3.28662 1.220681,-1.097184 3.064113,-1.579888 4.658819,-1.219913 1.617084,0.365026 17.08924,7.091379 17.891627,7.778192 0.394254,0.337467 0.957558,1.055881 1.251787,1.596477 0.955832,1.75618 0.924994,2.093036 -1.027418,11.222653 -0.968831,4.530324 -1.930496,8.634113 -2.137034,9.119532 -0.473875,1.113731 -1.513502,2.13401 -2.746311,2.6952 -0.832442,0.378938 -1.29621,0.439459 -3.543804,0.462458 -1.422311,0.01455 -3.017024,-0.0044 -3.543806,-0.04208 z m 4.119189,-6.536287 c 3.92e-4,-0.07902 0.64256,-3.157844 1.427041,-6.841837 0.78448,-3.683994 1.390325,-6.734173 1.346322,-6.778176 -0.044,-0.044 -3.164286,-1.406303 -6.933961,-3.027334 -5.399409,-2.321845 -6.894682,-2.894224 -7.045858,-2.697098 -1.0191,1.328862 -4.028226,4.787182 -4.609325,5.297394 -1.633157,1.43393 -4.133523,2.065336 -6.167448,1.557438 -2.191528,-0.547253 -7.658756,-4.536611 -11.55005,-8.427905 -3.96035,-3.96035 -7.634759,-9.013137 -8.354286,-11.48822 -0.585515,-2.014103 0.0873,-4.795469 1.526579,-6.310729 0.336704,-0.354479 1.662236,-1.495304 2.945626,-2.535165 1.283389,-1.039862 2.375217,-1.95826 2.426282,-2.040885 0.05106,-0.08263 -1.229952,-3.251834 -2.846703,-7.042685 -2.727743,-6.395834 -2.971576,-6.888618 -3.384066,-6.839157 -0.528321,0.06335 -13.229073,2.89609 -13.291314,2.964456 -0.108465,0.119142 0.307373,5.054563 0.585006,6.943207 0.568394,3.866585 1.827081,8.809257 3.000054,11.780758 8.059888,20.418164 26.463684,33.9771 48.086812,35.427801 1.19247,0.08 2.318978,0.158137 2.503352,0.173632 0.184373,0.01549 0.335545,-0.03647 0.335937,-0.115495 z"
       id="path2" /></g></svg>
