<?xml version="1.0" encoding="UTF-8" standalone="no"?>
<!-- Created with Inkscape (http://www.inkscape.org/) -->

<svg
   width="100mm"
   height="100mm"
   viewBox="0 0 100 100"
   version="1.1"
   id="svg5"
   xml:space="preserve"
   inkscape:version="1.3 (0e150ed6c4, 2023-07-21)"
   sodipodi:docname="publish.svg"
   xmlns:inkscape="http://www.inkscape.org/namespaces/inkscape"
   xmlns:sodipodi="http://sodipodi.sourceforge.net/DTD/sodipodi-0.dtd"
   xmlns="http://www.w3.org/2000/svg"
   xmlns:svg="http://www.w3.org/2000/svg"><sodipodi:namedview
     id="namedview7"
     pagecolor="#ffffff"
     bordercolor="#666666"
     borderopacity="1.0"
     inkscape:showpageshadow="2"
     inkscape:pageopacity="0.0"
     inkscape:pagecheckerboard="0"
     inkscape:deskcolor="#d1d1d1"
     inkscape:document-units="mm"
     showgrid="false"
     showguides="true"
     inkscape:zoom="1.1893044"
     inkscape:cx="120.65876"
     inkscape:cy="161.85932"
     inkscape:window-width="1920"
     inkscape:window-height="1137"
     inkscape:window-x="-8"
     inkscape:window-y="-8"
     inkscape:window-maximized="1"
     inkscape:current-layer="layer1"><sodipodi:guide
       position="5.7086283,46.607445"
       orientation="1,0"
       id="guide304"
       inkscape:locked="false" /><sodipodi:guide
       position="94.291371,27.030175"
       orientation="1,0"
       id="guide306"
       inkscape:locked="false" /><sodipodi:guide
       position="65.101986,7.4528449"
       orientation="0,-1"
       id="guide308"
       inkscape:locked="false" /><sodipodi:guide
       position="53.837492,92.436054"
       orientation="0,-1"
       id="guide310"
       inkscape:locked="false" /><sodipodi:guide
       position="55.840302,14.660224"
       orientation="0,-1"
       id="guide312"
       inkscape:locked="false" /><sodipodi:guide
       position="59.399216,85.383395"
       orientation="0,-1"
       id="guide314"
       inkscape:locked="false" /></sodipodi:namedview><defs
     id="defs2" /><g
     inkscape:label="Слой 1"
     inkscape:groupmode="layer"
     id="layer1"><path
       style="fill:#000000;stroke-width:0.728662"
       d="M 48.838539,85.320468 C 47.89586,84.969472 47.087395,84.19838 46.59448,83.180155 46.219462,82.405471 46.209387,81.984137 46.209387,67.075933 V 51.767211 l -4.386014,4.355154 c -4.915921,4.881336 -5.290372,5.133781 -7.306325,4.925711 -1.554579,-0.160444 -2.697913,-0.918952 -3.403679,-2.25805 -0.490696,-0.931033 -0.547022,-1.207298 -0.471387,-2.312059 0.04725,-0.690079 0.239045,-1.557639 0.426222,-1.927923 0.187178,-0.370277 3.952474,-4.298822 8.367327,-8.730106 8.808174,-8.84095 9.044106,-9.032741 11.111671,-9.032741 2.067566,0 2.303498,0.191791 11.111673,9.032741 4.414852,4.431284 8.180149,8.359829 8.367327,8.730106 0.187177,0.370284 0.378977,1.237844 0.426222,1.927923 0.07563,1.104761 0.01931,1.381026 -0.471388,2.312059 -0.971005,1.842356 -3.077208,2.698854 -5.210922,2.119044 -0.824589,-0.224071 -1.385987,-0.711619 -5.399302,-4.689086 l -4.479025,-4.439016 -0.05158,15.521476 -0.05158,15.521475 -0.531824,0.803554 c -0.824871,1.246326 -1.824243,1.80827 -3.372418,1.896292 -0.830424,0.04722 -1.57055,-0.0263 -2.045842,-0.203297 z M 17.484783,54.051675 c -1.386824,-0.601401 -2.273617,-1.91504 -2.450639,-3.630208 -0.140948,-1.365666 0.253348,-5.216289 0.804274,-7.854376 4.090832,-19.588814 23.925859,-31.870685 43.515519,-26.944858 11.476179,2.88569 21.064429,11.757392 24.850637,22.99351 1.15713,3.433955 2.100383,9.434847 1.855684,11.805724 -0.258034,2.500141 -1.855771,3.937325 -4.377175,3.937325 -2.932289,0 -4.164332,-1.410078 -4.453495,-5.09702 C 76.800581,43.79167 75.680176,39.910596 73.487385,36.298769 69.546487,29.807577 63.444081,25.4693 55.999039,23.866085 c -2.834241,-0.610324 -7.850287,-0.60517 -10.753611,0.01105 -5.500765,1.16752 -9.854508,3.495115 -13.586481,7.263597 -4.925021,4.973201 -7.172842,10.199292 -7.794133,18.121039 -0.228669,2.915639 -0.852904,4.081098 -2.570209,4.798633 -0.904848,0.378066 -2.928571,0.373432 -3.809822,-0.0087 z"
       id="path1" /></g></svg>
