<?xml version="1.0" encoding="UTF-8" standalone="no"?>
<!-- Created with Inkscape (http://www.inkscape.org/) -->

<svg
   width="200mm"
   height="200mm"
   viewBox="0 0 200 200"
   version="1.1"
   id="svg1"
   xml:space="preserve"
   inkscape:version="1.3.2 (091e20e, 2023-11-25, custom)"
   sodipodi:docname="send.svg"
   xmlns:inkscape="http://www.inkscape.org/namespaces/inkscape"
   xmlns:sodipodi="http://sodipodi.sourceforge.net/DTD/sodipodi-0.dtd"
   xmlns="http://www.w3.org/2000/svg"
   xmlns:svg="http://www.w3.org/2000/svg"><sodipodi:namedview
     id="namedview1"
     pagecolor="#ffffff"
     bordercolor="#666666"
     borderopacity="1.0"
     inkscape:showpageshadow="2"
     inkscape:pageopacity="0.0"
     inkscape:pagecheckerboard="true"
     inkscape:deskcolor="#d1d1d1"
     inkscape:document-units="mm"
     inkscape:zoom="0.80087682"
     inkscape:cx="212.26735"
     inkscape:cy="423.91038"
     inkscape:current-layer="layer1" /><defs
     id="defs1" /><g
     inkscape:label="Шар 1"
     inkscape:groupmode="layer"
     id="layer1"><path
       style="fill:#000000;stroke-width:1.26738"
       d="M 12.670692,187.49253 C 7.2638329,186.83496 2.1519423,182.29631 0.4810495,176.66981 c -0.68398043,-2.30322 -0.63390608,-5.98786 0.1204139,-8.86103 0.8772881,-3.34152 25.7986566,-51.23204 27.6587426,-53.15083 2.685382,-2.77014 1.273914,-2.5092 39.501081,-7.30257 19.062179,-2.39024 35.157343,-4.43211 35.767033,-4.5375 1.59481,-0.27562 2.41242,-1.23265 2.41242,-2.82373 0,-1.556473 -0.89953,-2.5913 -2.48988,-2.864402 -0.56708,-0.09734 -16.627394,-2.13271 -35.689573,-4.522952 C 29.530592,87.812976 30.943566,88.07426 28.260211,85.302377 27.327188,84.33857 23.435075,77.172619 14.172704,59.365215 7.1336375,45.832233 1.1181293,34.005306 0.80490883,33.083155 0.49169049,32.161002 0.15759859,30.02718 0.06248406,28.341326 -0.07921922,25.829717 0.0181004,24.852913 0.60133666,22.932726 1.404719,20.287768 3.4782242,17.220435 5.5974636,15.541967 9.7022224,12.290937 15.51265,11.486338 21.102765,13.394869 c 1.014368,0.346316 19.725667,8.485258 41.580669,18.086536 21.855001,9.601277 55.052476,24.176556 73.772166,32.389506 18.71968,8.21295 39.09086,17.152562 45.26928,19.865801 14.07214,6.179759 15.20082,6.895161 17.37154,11.010767 0.80639,1.528905 0.90334,2.072442 0.90358,5.065938 2e-4,2.910033 -0.11457,3.597073 -0.86831,5.197583 -1.12336,2.38538 -2.25078,3.69336 -4.41823,5.12579 -1.85701,1.22726 -2.48452,1.50586 -77.03623,34.20529 -26.281339,11.52736 -58.497974,25.66775 -71.592531,31.42308 -13.094559,5.75532 -24.789121,10.73642 -25.987917,11.0691 -2.71846,0.75439 -4.984251,0.95524 -7.42609,0.65827 z"
       id="path1" /></g></svg>
