<?xml version="1.0" encoding="UTF-8" standalone="no"?>
<!-- Created with Inkscape (http://www.inkscape.org/) -->

<svg
   width="100mm"
   height="100mm"
   viewBox="0 0 100 100"
   version="1.1"
   id="svg5"
   xml:space="preserve"
   inkscape:version="1.2 (dc2aedaf03, 2022-05-15)"
   sodipodi:docname="sign_in.svg"
   xmlns:inkscape="http://www.inkscape.org/namespaces/inkscape"
   xmlns:sodipodi="http://sodipodi.sourceforge.net/DTD/sodipodi-0.dtd"
   xmlns="http://www.w3.org/2000/svg"
   xmlns:svg="http://www.w3.org/2000/svg"><sodipodi:namedview
     id="namedview7"
     pagecolor="#ffffff"
     bordercolor="#666666"
     borderopacity="1.0"
     inkscape:showpageshadow="2"
     inkscape:pageopacity="0.0"
     inkscape:pagecheckerboard="0"
     inkscape:deskcolor="#d1d1d1"
     inkscape:document-units="mm"
     showgrid="false"
     showguides="true"
     inkscape:zoom="1.1893044"
     inkscape:cx="28.167726"
     inkscape:cy="162.27973"
     inkscape:window-width="1920"
     inkscape:window-height="1137"
     inkscape:window-x="-8"
     inkscape:window-y="-8"
     inkscape:window-maximized="1"
     inkscape:current-layer="layer1"><sodipodi:guide
       position="5.7086283,46.607445"
       orientation="1,0"
       id="guide304"
       inkscape:locked="false" /><sodipodi:guide
       position="94.291371,27.030175"
       orientation="1,0"
       id="guide306"
       inkscape:locked="false" /><sodipodi:guide
       position="65.101986,7.4528449"
       orientation="0,-1"
       id="guide308"
       inkscape:locked="false" /><sodipodi:guide
       position="53.837492,92.436054"
       orientation="0,-1"
       id="guide310"
       inkscape:locked="false" /><sodipodi:guide
       position="55.840302,14.660224"
       orientation="0,-1"
       id="guide312"
       inkscape:locked="false" /><sodipodi:guide
       position="59.399216,85.383395"
       orientation="0,-1"
       id="guide314"
       inkscape:locked="false" /></sodipodi:namedview><defs
     id="defs2" /><g
     inkscape:label="Слой 1"
     inkscape:groupmode="layer"
     id="layer1"><path
       style="fill:#000000;stroke-width:0.24401"
       d="m 64.334656,85.241223 c -4.228563,-0.924219 -5.585814,-5.912421 -2.375636,-8.730994 1.266375,-1.111892 2.594964,-1.303304 9.046213,-1.303304 5.395854,0 5.723156,-0.02659 6.757292,-0.549022 1.178882,-0.595552 2.042518,-1.69158 2.428856,-3.082421 0.34637,-1.246956 0.333472,-42.046515 -0.01369,-43.29671 -0.14239,-0.512768 -0.648108,-1.363125 -1.123817,-1.88968 -1.368443,-1.514703 -2.326636,-1.691269 -9.212287,-1.697552 -5.169691,-0.0047 -5.991034,-0.059 -6.859083,-0.453297 -2.822199,-1.281947 -3.653559,-4.946378 -1.743744,-7.685984 0.269287,-0.386288 1.085022,-0.974931 1.812746,-1.308094 l 1.323137,-0.605751 6.873282,0.115727 c 5.606515,0.0944 7.120623,0.193658 8.215334,0.538572 4.101992,1.292425 7.527889,4.160355 9.222812,7.720721 1.711006,3.594142 1.635627,2.347029 1.635627,27.060484 0,24.745205 0.07567,23.505697 -1.651893,27.058349 -1.311055,2.696126 -3.471753,4.895961 -6.206111,6.318531 -3.091935,1.608601 -4.199258,1.796149 -11.17476,1.892675 -3.355136,0.04643 -6.484561,4.88e-4 -6.954279,-0.10225 z M 38.381105,74.849498 C 37.862704,74.664692 37.111722,74.202842 36.712254,73.823165 35.237281,72.421261 35.186341,72.179002 35.053481,65.934553 L 34.931475,60.200324 23.951035,60.078318 C 11.790132,59.943198 12.06074,59.979653 10.820818,58.309504 9.7794446,56.906798 9.6763887,56.166466 9.6778227,50.098508 c 0.00148,-6.138661 0.1375645,-7.136576 1.1351253,-8.32211 1.357784,-1.613634 1.040936,-1.572469 13.138087,-1.706882 l 10.98044,-0.122006 0.122006,-5.734229 c 0.136754,-6.427476 0.178147,-6.599301 1.956494,-8.121498 1.470572,-1.258756 3.668435,-1.532974 5.485804,-0.684442 0.653881,0.305298 4.45192,3.947939 11.506895,11.036084 11.413619,11.467284 11.059629,11.026805 11.06265,13.765591 0.0026,2.36658 -0.369563,2.815906 -11.642329,14.055857 -8.843108,8.817361 -10.588425,10.449357 -11.415235,10.674066 -1.290312,0.350677 -2.473949,0.321486 -3.626655,-0.08944 z"
       id="path306" /></g></svg>
