<?xml version="1.0" encoding="UTF-8" standalone="no"?>
<!-- Created with Inkscape (http://www.inkscape.org/) -->

<svg
   width="100mm"
   height="100mm"
   viewBox="0 0 100 100"
   version="1.1"
   id="svg5"
   xml:space="preserve"
   inkscape:version="1.2 (dc2aedaf03, 2022-05-15)"
   sodipodi:docname="sign_up.svg"
   xmlns:inkscape="http://www.inkscape.org/namespaces/inkscape"
   xmlns:sodipodi="http://sodipodi.sourceforge.net/DTD/sodipodi-0.dtd"
   xmlns="http://www.w3.org/2000/svg"
   xmlns:svg="http://www.w3.org/2000/svg"><sodipodi:namedview
     id="namedview7"
     pagecolor="#ffffff"
     bordercolor="#666666"
     borderopacity="1.0"
     inkscape:showpageshadow="2"
     inkscape:pageopacity="0.0"
     inkscape:pagecheckerboard="0"
     inkscape:deskcolor="#d1d1d1"
     inkscape:document-units="mm"
     showgrid="false"
     showguides="true"
     inkscape:zoom="1.1893044"
     inkscape:cx="120.65876"
     inkscape:cy="162.27973"
     inkscape:window-width="1920"
     inkscape:window-height="1137"
     inkscape:window-x="-8"
     inkscape:window-y="-8"
     inkscape:window-maximized="1"
     inkscape:current-layer="layer1"><sodipodi:guide
       position="5.7086283,46.607445"
       orientation="1,0"
       id="guide304"
       inkscape:locked="false" /><sodipodi:guide
       position="94.291371,27.030175"
       orientation="1,0"
       id="guide306"
       inkscape:locked="false" /><sodipodi:guide
       position="65.101986,7.4528449"
       orientation="0,-1"
       id="guide308"
       inkscape:locked="false" /><sodipodi:guide
       position="53.837492,92.436054"
       orientation="0,-1"
       id="guide310"
       inkscape:locked="false" /><sodipodi:guide
       position="55.840302,14.660224"
       orientation="0,-1"
       id="guide312"
       inkscape:locked="false" /><sodipodi:guide
       position="59.399216,85.383395"
       orientation="0,-1"
       id="guide314"
       inkscape:locked="false" /></sodipodi:namedview><defs
     id="defs2" /><g
     inkscape:label="Слой 1"
     inkscape:groupmode="layer"
     id="layer1"><path
       style="fill:#000000;stroke-width:0.214526"
       d="m 8.1853334,85.128096 c -0.808438,-0.363496 -1.940492,-1.545548 -2.239356,-2.33826 -0.696774,-1.848134 0.208816,-7.46974 1.82541,-11.331558 2.4725186,-5.906494 7.6597766,-10.807312 13.8499426,-13.085146 3.716916,-1.367736 4.888646,-1.510866 13.331856,-1.628526 8.466066,-0.11798 11.339072,0.06398 14.541446,0.920998 2.729752,0.730528 4.732342,1.6093 6.980484,3.06316 6.212438,4.017544 10.074834,10.298264 11.037812,17.948806 0.444838,3.534092 0.1717,4.556516 -1.600472,5.990908 l -0.81047,0.655992 -28.13654,0.0465 C 13.741814,85.40935 8.7165334,85.36697 8.1853334,85.1281 Z M 60.734512,77.524586 C 60.0026,74.387158 58.667886,71.762858 56.58048,69.356972 c -1.537898,-1.772538 -3.286898,-3.064168 -5.70465,-4.21286 -3.479084,-1.652936 -3.453538,-1.649532 -13.136916,-1.75148 -9.366712,-0.09862 -10.588334,-0.0096 -13.464198,0.982258 -4.389356,1.513688 -8.031138,4.723086 -10.14009,8.936176 -0.572646,1.143984 -1.255348,3.174516 -1.640896,4.880446 l -0.13334,0.589944 H 36.69405 61.02771 Z M 77.384928,60.612334 C 76.980354,60.39932 76.449406,59.95274 76.20504,59.61994 75.790586,59.05549 75.756406,58.67838 75.696208,54.006088 l -0.06454,-5.008752 -4.869546,-0.07106 c -4.452034,-0.06498 -4.933856,-0.10884 -5.619652,-0.511716 -2.296382,-1.349 -2.292548,-4.44055 0.007,-5.619684 0.893114,-0.457966 1.186152,-0.482682 5.722674,-0.482682 h 4.781354 l 4.3e-4,-4.880444 c 4.28e-4,-5.571384 0.10374,-6.01208 1.608606,-6.858042 1.089748,-0.612606 1.91789,-0.614412 3.102916,-0.0068 1.629024,0.83532 1.723898,1.212942 1.723898,6.861456 v 4.883794 l 4.773184,0.0048 c 5.618366,0.0056 6.232566,0.15682 7.036752,1.73316 0.838382,1.643366 0.302154,3.420242 -1.32063,4.376094 -0.65957,0.388502 -1.189674,0.435778 -5.60886,0.50024 l -4.880446,0.07118 -4.28e-4,4.755628 c -4.3e-4,5.207422 -0.10994,5.757368 -1.32447,6.647424 -0.812146,0.595174 -2.455642,0.698124 -3.379502,0.2117 z M 35.000972,49.797498 c -2.257054,-0.208468 -4.079204,-0.731492 -6.221228,-1.785714 -5.97286,-2.939622 -9.760892,-9.0631 -9.760892,-15.778808 0,-5.512658 2.549422,-10.693048 6.88035,-13.98077 3.350092,-2.543146 6.610682,-3.638932 10.81797,-3.635594 2.599796,0.002 4.762088,0.432926 6.966254,1.388114 9.430024,4.086546 13.412264,15.218968 8.704604,24.333864 -3.340606,6.46803 -10.079076,10.133892 -17.387058,9.458908 z m 4.259538,-6.75253 c 2.842088,-0.732776 5.749496,-2.940152 7.18144,-5.45233 1.995102,-3.500172 1.65007,-8.641758 -0.796418,-11.868106 -4.265704,-5.62546 -12.435158,-6.061806 -17.131314,-0.915014 -1.938708,2.12474 -2.845088,4.488582 -2.845088,7.419994 0,3.158854 0.98812,5.548272 3.19437,7.724458 2.95297,2.912732 6.731494,4.036076 10.39701,3.090998 z"
       id="path302" /></g></svg>
