<?xml version="1.0" encoding="UTF-8" standalone="no"?>
<!-- Created with Inkscape (http://www.inkscape.org/) -->

<svg
   width="100mm"
   height="100mm"
   viewBox="0 0 100 100"
   version="1.1"
   id="svg5"
   xml:space="preserve"
   inkscape:version="1.2 (dc2aedaf03, 2022-05-15)"
   sodipodi:docname="sign_out.svg"
   xmlns:inkscape="http://www.inkscape.org/namespaces/inkscape"
   xmlns:sodipodi="http://sodipodi.sourceforge.net/DTD/sodipodi-0.dtd"
   xmlns="http://www.w3.org/2000/svg"
   xmlns:svg="http://www.w3.org/2000/svg"><sodipodi:namedview
     id="namedview7"
     pagecolor="#ffffff"
     bordercolor="#666666"
     borderopacity="1.0"
     inkscape:showpageshadow="2"
     inkscape:pageopacity="0.0"
     inkscape:pagecheckerboard="0"
     inkscape:deskcolor="#d1d1d1"
     inkscape:document-units="mm"
     showgrid="false"
     showguides="true"
     inkscape:zoom="1.1893044"
     inkscape:cx="28.167726"
     inkscape:cy="162.27973"
     inkscape:window-width="1920"
     inkscape:window-height="1137"
     inkscape:window-x="-8"
     inkscape:window-y="-8"
     inkscape:window-maximized="1"
     inkscape:current-layer="layer1"><sodipodi:guide
       position="5.7086283,46.607445"
       orientation="1,0"
       id="guide304"
       inkscape:locked="false" /><sodipodi:guide
       position="94.291371,27.030175"
       orientation="1,0"
       id="guide306"
       inkscape:locked="false" /><sodipodi:guide
       position="65.101986,7.4528449"
       orientation="0,-1"
       id="guide308"
       inkscape:locked="false" /><sodipodi:guide
       position="53.837492,92.436054"
       orientation="0,-1"
       id="guide310"
       inkscape:locked="false" /><sodipodi:guide
       position="55.840302,14.660224"
       orientation="0,-1"
       id="guide312"
       inkscape:locked="false" /><sodipodi:guide
       position="59.399216,85.383395"
       orientation="0,-1"
       id="guide314"
       inkscape:locked="false" /></sodipodi:namedview><defs
     id="defs2" /><g
     inkscape:label="Слой 1"
     inkscape:groupmode="layer"
     id="layer1"><path
       style="fill:#000000;stroke-width:0.219251"
       d="m 22.692355,84.999222 c -0.844117,-0.177598 -2.422726,-0.752826 -3.50802,-1.278279 -4.311531,-2.087467 -7.24763,-6.010824 -8.127522,-10.860388 -0.437138,-2.40931 -0.437138,-43.414202 0,-45.823512 0.411911,-2.270264 1.073006,-3.907608 2.346529,-5.811683 1.433711,-2.143575 3.335648,-3.830899 5.533088,-4.908736 3.236592,-1.587539 3.737718,-1.659098 11.64897,-1.663433 6.412007,-0.0035 7.07998,0.03102 7.758732,0.401054 3.371025,1.837806 3.575519,6.812028 0.361784,8.800269 l -1.068646,0.661139 -6.705078,0.111137 c -7.480561,0.12399 -7.383096,0.105006 -8.844665,1.722787 -0.435118,0.481624 -0.895803,1.252649 -1.023743,1.71339 -0.156753,0.564503 -0.231447,7.773823 -0.229027,22.105083 0.0034,20.160449 0.02453,21.313018 0.4059,22.144377 0.22127,0.482353 0.685701,1.157489 1.032071,1.500304 1.348684,1.334839 1.367873,1.338088 8.641549,1.463408 5.918422,0.101969 6.772542,0.161219 7.429855,0.515409 2.423364,1.305812 3.354553,4.350552 2.100315,6.867477 -0.64136,1.287045 -1.732929,2.134657 -3.171884,2.463001 -1.5763,0.359684 -12.733626,0.265708 -14.580208,-0.122804 z M 64.898221,74.854781 c -1.43079,-0.50429 -2.848049,-1.925205 -3.246398,-3.254769 -0.171236,-0.571535 -0.261622,-2.696777 -0.261622,-6.151502 v -5.278283 l -10.804465,-0.06793 -10.804467,-0.06793 -1.05887,-0.548128 C 37.245657,58.7218 36.43638,57.523296 36.148546,55.674473 c -0.13423,-0.86219 -0.196715,-3.666449 -0.148749,-6.675706 0.0695,-4.360284 0.144583,-5.329055 0.470118,-6.065998 0.509352,-1.15306 1.36598,-2.043711 2.447033,-2.544222 0.815638,-0.377627 1.632573,-0.406376 11.675128,-0.410855 l 10.798125,-0.0048 0.0022,-5.536095 c 0.002,-5.346793 0.01973,-5.573886 0.516797,-6.641311 0.898157,-1.928778 2.626455,-3.017859 4.768548,-3.004882 2.458129,0.01489 2.433801,-0.0051 13.634964,11.238378 7.970092,8.000244 10.368194,10.533598 10.737381,11.342966 0.656503,1.439251 0.65666,3.735046 4.39e-4,5.098265 -0.636722,1.322528 -20.585674,21.468314 -21.899766,22.115848 -1.376703,0.678385 -2.829624,0.770208 -4.252393,0.268745 z"
       id="path306" /></g></svg>
