<?xml version="1.0" encoding="UTF-8" standalone="no"?>
<!-- Created with Inkscape (http://www.inkscape.org/) -->

<svg
   width="100mm"
   height="100mm"
   viewBox="0 0 100 100"
   version="1.1"
   id="svg5"
   xml:space="preserve"
   inkscape:version="1.3 (0e150ed6c4, 2023-07-21)"
   sodipodi:docname="telegram.svg"
   xmlns:inkscape="http://www.inkscape.org/namespaces/inkscape"
   xmlns:sodipodi="http://sodipodi.sourceforge.net/DTD/sodipodi-0.dtd"
   xmlns="http://www.w3.org/2000/svg"
   xmlns:svg="http://www.w3.org/2000/svg"><sodipodi:namedview
     id="namedview7"
     pagecolor="#ffffff"
     bordercolor="#666666"
     borderopacity="1.0"
     inkscape:showpageshadow="2"
     inkscape:pageopacity="0.0"
     inkscape:pagecheckerboard="0"
     inkscape:deskcolor="#d1d1d1"
     inkscape:document-units="mm"
     showgrid="false"
     showguides="true"
     inkscape:zoom="1.1893044"
     inkscape:cx="120.65876"
     inkscape:cy="161.85932"
     inkscape:window-width="1920"
     inkscape:window-height="1137"
     inkscape:window-x="-8"
     inkscape:window-y="-8"
     inkscape:window-maximized="1"
     inkscape:current-layer="layer1"><sodipodi:guide
       position="5.7086283,46.607445"
       orientation="1,0"
       id="guide304"
       inkscape:locked="false" /><sodipodi:guide
       position="94.291371,27.030175"
       orientation="1,0"
       id="guide306"
       inkscape:locked="false" /><sodipodi:guide
       position="65.101986,7.4528449"
       orientation="0,-1"
       id="guide308"
       inkscape:locked="false" /><sodipodi:guide
       position="53.837492,92.436054"
       orientation="0,-1"
       id="guide310"
       inkscape:locked="false" /><sodipodi:guide
       position="55.840302,14.660224"
       orientation="0,-1"
       id="guide312"
       inkscape:locked="false" /><sodipodi:guide
       position="59.399216,85.383395"
       orientation="0,-1"
       id="guide314"
       inkscape:locked="false" /></sodipodi:namedview><defs
     id="defs2" /><g
     inkscape:label="Слой 1"
     inkscape:groupmode="layer"
     id="layer1"><path
       style="fill:#000000;stroke-width:0.752448"
       d="M 46.32661,85.356823 C 34.577489,83.987825 24.492433,77.219236 18.916386,66.96044 12.689485,55.504199 13.319058,41.281994 20.533034,30.440007 31.421318,14.075854 53.523587,9.6011842 69.784818,20.468841 83.761909,29.809966 89.298351,47.422048 83.184739,63.095583 78.519882,75.054933 67.393096,83.66799 54.529846,85.276852 c -2.546528,0.318504 -5.877384,0.35098 -8.203236,0.07997 z M 61.362242,67.290664 c 0.290298,-0.311111 0.684988,-1.005421 0.877086,-1.542911 0.604914,-1.69255 3.443551,-18.587315 4.250754,-25.299295 0.283294,-2.355611 0.296698,-2.923537 0.08128,-3.443609 -0.282587,-0.682225 -1.09436,-1.201261 -1.878775,-1.201261 -1.474116,0 -8.278197,2.698626 -26.095508,10.34997 -8.751846,3.758332 -9.745435,4.240066 -10.299199,4.993488 -0.740446,1.007408 0.330019,2.044909 2.75201,2.667258 0.647052,0.166265 2.003014,0.518207 3.013249,0.782094 4.100795,1.071185 4.831243,0.933619 8.579694,-1.615826 6.285722,-4.275129 12.779103,-8.607204 13.322949,-8.888437 0.506367,-0.261853 0.651327,-0.26743 0.966218,-0.03718 0.357068,0.261095 0.352621,0.2959 -0.122931,0.962135 -0.462273,0.647632 -4.707619,4.793535 -9.320672,9.102344 -2.261401,2.112253 -3.002772,3.255072 -2.608461,4.020924 0.448032,0.870194 1.289872,1.589533 3.47232,2.967048 1.204466,0.760234 3.533764,2.326624 5.176218,3.480869 4.042281,2.840736 4.766748,3.200513 6.539711,3.247666 0.600528,0.01597 0.880386,-0.101955 1.294056,-0.545279 z"
       id="path1" /></g></svg>
