<?xml version="1.0" encoding="UTF-8" standalone="no"?>
<!-- Created with Inkscape (http://www.inkscape.org/) -->

<svg
   width="100mm"
   height="100mm"
   viewBox="0 0 100 100"
   version="1.1"
   id="svg5"
   xml:space="preserve"
   inkscape:version="1.3.2 (091e20e, 2023-11-25, custom)"
   sodipodi:docname="tiktok.svg"
   xmlns:inkscape="http://www.inkscape.org/namespaces/inkscape"
   xmlns:sodipodi="http://sodipodi.sourceforge.net/DTD/sodipodi-0.dtd"
   xmlns="http://www.w3.org/2000/svg"
   xmlns:svg="http://www.w3.org/2000/svg"><sodipodi:namedview
     id="namedview7"
     pagecolor="#ffffff"
     bordercolor="#666666"
     borderopacity="1.0"
     inkscape:showpageshadow="2"
     inkscape:pageopacity="0.0"
     inkscape:pagecheckerboard="0"
     inkscape:deskcolor="#d1d1d1"
     inkscape:document-units="mm"
     showgrid="false"
     showguides="true"
     inkscape:zoom="1.1893044"
     inkscape:cx="120.65876"
     inkscape:cy="161.85932"
     inkscape:window-width="1920"
     inkscape:window-height="1137"
     inkscape:window-x="-8"
     inkscape:window-y="-8"
     inkscape:window-maximized="1"
     inkscape:current-layer="layer1"><sodipodi:guide
       position="5.7086283,46.607445"
       orientation="1,0"
       id="guide304"
       inkscape:locked="false" /><sodipodi:guide
       position="94.291371,27.030175"
       orientation="1,0"
       id="guide306"
       inkscape:locked="false" /><sodipodi:guide
       position="65.101986,7.4528449"
       orientation="0,-1"
       id="guide308"
       inkscape:locked="false" /><sodipodi:guide
       position="53.837492,92.436054"
       orientation="0,-1"
       id="guide310"
       inkscape:locked="false" /><sodipodi:guide
       position="55.840302,14.660224"
       orientation="0,-1"
       id="guide312"
       inkscape:locked="false" /><sodipodi:guide
       position="59.399216,85.383395"
       orientation="0,-1"
       id="guide314"
       inkscape:locked="false" /></sodipodi:namedview><defs
     id="defs2" /><g
     inkscape:label="Слой 1"
     inkscape:groupmode="layer"
     id="layer1"><path
       style="fill:#000000;stroke-width:0.689888"
       d="M 37.819964,92.438461 C 26.199059,90.813192 17.108698,82.312064 14.694038,70.811563 c -0.478259,-2.277836 -0.48971,-7.886225 -0.02067,-10.130571 0.665814,-3.18602 2.010152,-6.633965 3.594019,-9.217906 2.563935,-4.182836 6.585588,-7.929233 10.778429,-10.040714 4.015094,-2.021969 10.022814,-3.162804 14.463968,-2.746634 l 1.413591,0.132464 v 7.445646 7.445644 l -1.14083,-0.24476 c -5.385125,-1.155357 -11.260697,1.741082 -13.721365,6.764123 -0.891292,1.819428 -1.23356,3.336614 -1.236507,5.481134 -0.006,4.32375 1.923425,7.913712 5.494707,10.223964 2.947523,1.906737 6.733041,2.580646 9.789014,1.742649 4.367403,-1.197603 7.664623,-4.369142 9.021954,-8.67806 l 0.460718,-1.46257 0.05313,-29.981013 0.05313,-29.9810137 h 7.195592 7.195594 l 0.09022,0.5932312 c 0.04962,0.3262772 0.137567,1.1456728 0.195431,1.8208781 0.243976,2.8468404 1.913854,6.9292694 3.927358,9.6013894 2.499689,3.317337 6.240909,6.016779 10.132357,7.31091 1.667583,0.554565 4.441813,1.115621 5.521619,1.116683 l 0.593233,5.82e-4 v 7.210046 7.210047 l -0.410701,-0.0015 c -2.057653,-0.0077 -6.250125,-0.593486 -8.595927,-1.20083 -3.040231,-0.787135 -7.316241,-2.666145 -9.885521,-4.344004 -0.70275,-0.458928 -1.335743,-0.836173 -1.406648,-0.838322 -0.07091,-0.0021 -0.158162,7.573488 -0.193901,16.834746 -0.06407,16.602325 -0.07061,16.861708 -0.4655,18.481447 -0.637703,2.615655 -1.089755,3.868196 -2.239837,6.206119 -2.62655,5.339328 -6.94373,9.655276 -12.3046,12.30107 -3.810237,1.880506 -6.649806,2.560588 -11.134501,2.66675 -1.606289,0.03806 -3.447511,-0.0044 -4.091607,-0.09459 z"
       id="path1" /></g></svg>
