<?xml version="1.0" encoding="UTF-8" standalone="no"?>
<!-- Created with Inkscape (http://www.inkscape.org/) -->

<svg
   width="100mm"
   height="100mm"
   viewBox="0 0 100 100"
   version="1.1"
   id="svg5"
   xml:space="preserve"
   inkscape:version="1.3 (0e150ed6c4, 2023-07-21)"
   sodipodi:docname="up.svg"
   xmlns:inkscape="http://www.inkscape.org/namespaces/inkscape"
   xmlns:sodipodi="http://sodipodi.sourceforge.net/DTD/sodipodi-0.dtd"
   xmlns="http://www.w3.org/2000/svg"
   xmlns:svg="http://www.w3.org/2000/svg"><sodipodi:namedview
     id="namedview7"
     pagecolor="#ffffff"
     bordercolor="#666666"
     borderopacity="1.0"
     inkscape:showpageshadow="2"
     inkscape:pageopacity="0.0"
     inkscape:pagecheckerboard="0"
     inkscape:deskcolor="#d1d1d1"
     inkscape:document-units="mm"
     showgrid="false"
     showguides="true"
     inkscape:zoom="1.7158096"
     inkscape:cx="120.93416"
     inkscape:cy="161.73123"
     inkscape:window-width="1920"
     inkscape:window-height="1137"
     inkscape:window-x="-8"
     inkscape:window-y="-8"
     inkscape:window-maximized="1"
     inkscape:current-layer="layer1"><sodipodi:guide
       position="5.7086283,46.607445"
       orientation="1,0"
       id="guide304"
       inkscape:locked="false" /><sodipodi:guide
       position="94.291371,27.030175"
       orientation="1,0"
       id="guide306"
       inkscape:locked="false" /><sodipodi:guide
       position="65.101986,7.4528449"
       orientation="0,-1"
       id="guide308"
       inkscape:locked="false" /><sodipodi:guide
       position="53.837492,92.436054"
       orientation="0,-1"
       id="guide310"
       inkscape:locked="false" /><sodipodi:guide
       position="55.840302,14.660224"
       orientation="0,-1"
       id="guide312"
       inkscape:locked="false" /><sodipodi:guide
       position="59.399216,85.383395"
       orientation="0,-1"
       id="guide314"
       inkscape:locked="false" /></sodipodi:namedview><defs
     id="defs2" /><g
     inkscape:label="Слой 1"
     inkscape:groupmode="layer"
     id="layer1"><path
       style="fill:#000000"
       d="m 42.15851,98.054365 c -1.429429,-0.29728 -2.426174,-0.82781 -3.317228,-1.76564 -1.592281,-1.67585 -1.531632,-0.45627 -1.531632,-30.799493 V 37.752698 l -7.65406,-0.0776 C 22.368288,37.601218 21.965761,37.570979 21.255069,37.044007 19.448008,35.704086 18.831104,33.555212 19.683501,31.569732 20.140574,30.505076 46.29416,2.8418918 47.441543,2.2094818 c 1.074336,-0.5921483 2.739753,-0.5921483 3.81046,0 1.126647,0.6230853 27.213496,28.2525272 27.757455,29.3988352 0.860874,1.814158 0.190439,4.117503 -1.584491,5.443669 -0.691847,0.516924 -1.131271,0.549582 -8.384173,0.623112 l -7.65406,0.0776 -0.0026,27.835945 -0.0026,27.835944 -0.623857,1.322918 c -0.729747,1.54746 -1.489641,2.30988 -2.946459,2.95625 -0.906336,0.40213 -2.003924,0.47587 -7.801598,0.52412 -3.710781,0.0309 -7.243794,-0.0472 -7.85114,-0.17351 z"
       id="path1" /></g></svg>
