<?xml version="1.0" encoding="UTF-8" standalone="no"?>
<!-- Created with Inkscape (http://www.inkscape.org/) -->

<svg
   width="100mm"
   height="100mm"
   viewBox="0 0 100 100"
   version="1.1"
   id="svg5"
   xml:space="preserve"
   inkscape:version="1.3 (0e150ed6c4, 2023-07-21)"
   sodipodi:docname="upload.svg"
   xmlns:inkscape="http://www.inkscape.org/namespaces/inkscape"
   xmlns:sodipodi="http://sodipodi.sourceforge.net/DTD/sodipodi-0.dtd"
   xmlns="http://www.w3.org/2000/svg"
   xmlns:svg="http://www.w3.org/2000/svg"><sodipodi:namedview
     id="namedview7"
     pagecolor="#ffffff"
     bordercolor="#666666"
     borderopacity="1.0"
     inkscape:showpageshadow="2"
     inkscape:pageopacity="0.0"
     inkscape:pagecheckerboard="0"
     inkscape:deskcolor="#d1d1d1"
     inkscape:document-units="mm"
     showgrid="false"
     showguides="true"
     inkscape:zoom="1.1893044"
     inkscape:cx="120.65876"
     inkscape:cy="161.85932"
     inkscape:window-width="1920"
     inkscape:window-height="1137"
     inkscape:window-x="-8"
     inkscape:window-y="-8"
     inkscape:window-maximized="1"
     inkscape:current-layer="layer1"><sodipodi:guide
       position="5.7086283,46.607445"
       orientation="1,0"
       id="guide304"
       inkscape:locked="false" /><sodipodi:guide
       position="94.291371,27.030175"
       orientation="1,0"
       id="guide306"
       inkscape:locked="false" /><sodipodi:guide
       position="65.101986,7.4528449"
       orientation="0,-1"
       id="guide308"
       inkscape:locked="false" /><sodipodi:guide
       position="53.837492,92.436054"
       orientation="0,-1"
       id="guide310"
       inkscape:locked="false" /><sodipodi:guide
       position="55.840302,14.660224"
       orientation="0,-1"
       id="guide312"
       inkscape:locked="false" /><sodipodi:guide
       position="59.399216,85.383395"
       orientation="0,-1"
       id="guide314"
       inkscape:locked="false" /></sodipodi:namedview><defs
     id="defs2" /><g
     inkscape:label="Слой 1"
     inkscape:groupmode="layer"
     id="layer1"><path
       style="fill:#000000;stroke-width:0.723795"
       d="m 22.042856,85.238261 c -3.419138,-0.694749 -5.861822,-2.844334 -6.928976,-6.097557 -0.392043,-1.195149 -0.563947,-6.444222 -0.268508,-8.198914 0.618504,-3.673466 3.49861,-6.657855 7.080825,-7.337208 0.609982,-0.11568 4.729572,-0.195469 10.092334,-0.195469 h 9.06163 l 0.110389,0.718141 c 0.191946,1.24869 0.701353,2.79555 1.205466,3.660507 0.632494,1.085232 2.112705,2.55761 3.228726,3.211642 1.125407,0.659532 3.134391,1.2189 4.377715,1.2189 3.723034,0 7.364618,-2.740502 8.397545,-6.319637 0.167183,-0.5793 0.353646,-1.376435 0.41436,-1.771412 l 0.110391,-0.718141 h 9.061629 c 5.362763,0 9.482353,0.07979 10.092335,0.195469 2.315523,0.439131 4.454283,1.884515 5.74614,3.88327 1.223354,1.892763 1.409333,2.793286 1.412011,6.836996 0.0015,2.47217 -0.07916,3.832192 -0.267355,4.500347 -0.817063,2.90079 -2.642494,4.88816 -5.516403,6.005772 l -1.29955,0.505368 -27.672343,0.02881 c -15.219789,0.01585 -28.017051,-0.04126 -28.438361,-0.12686 z m 53.722655,-7.897224 c 1.460435,-0.737788 2.1331,-2.239844 1.708772,-3.815677 -0.410867,-1.525849 -2.162397,-2.66732 -3.658968,-2.384551 -3.233841,0.611017 -3.816346,4.919537 -0.847418,6.267958 1.036289,0.470658 1.766902,0.452971 2.797614,-0.06773 z M 49.168794,67.59068 C 47.791025,67.348138 46.755965,66.614797 46.190888,65.480835 L 45.693614,64.482937 V 47.189415 c 0,-9.511437 -0.06463,-17.292549 -0.143628,-17.291359 -0.07899,0.0012 -2.4255,2.34107 -5.214455,5.199734 -5.601284,5.741289 -6.065155,6.091494 -8.073212,6.094975 -2.445423,0.0043 -4.261,-1.825382 -4.257008,-4.289935 0.0012,-0.719986 0.136031,-1.459101 0.352542,-1.932078 0.436177,-0.952848 18.178367,-18.841721 19.417842,-19.57838 0.69521,-0.413185 1.073102,-0.497635 2.226762,-0.497635 1.153659,0 1.531551,0.08445 2.22676,0.497635 1.240217,0.737099 18.981839,18.625723 19.417493,19.57838 0.224629,0.491201 0.346872,1.191844 0.340739,1.952968 -0.01999,2.482468 -1.800667,4.273281 -4.244855,4.269045 -2.010102,-0.0035 -2.470652,-0.351784 -8.061724,-6.096827 -2.783374,-2.860025 -5.13018,-5.200045 -5.215126,-5.200045 -0.08494,0 -0.154444,7.782085 -0.154444,17.293522 v 17.293522 l -0.497275,0.997898 c -0.790704,1.586737 -2.697387,2.452745 -4.645231,2.109845 z"
       id="path1" /></g></svg>
