<?xml version="1.0" encoding="UTF-8" standalone="no"?>
<!-- Created with Inkscape (http://www.inkscape.org/) -->

<svg
   width="100mm"
   height="100mm"
   viewBox="0 0 100 100"
   version="1.1"
   id="svg5"
   xml:space="preserve"
   inkscape:version="1.3 (0e150ed6c4, 2023-07-21)"
   sodipodi:docname="write.svg"
   xmlns:inkscape="http://www.inkscape.org/namespaces/inkscape"
   xmlns:sodipodi="http://sodipodi.sourceforge.net/DTD/sodipodi-0.dtd"
   xmlns="http://www.w3.org/2000/svg"
   xmlns:svg="http://www.w3.org/2000/svg"><sodipodi:namedview
     id="namedview7"
     pagecolor="#ffffff"
     bordercolor="#666666"
     borderopacity="1.0"
     inkscape:showpageshadow="2"
     inkscape:pageopacity="0.0"
     inkscape:pagecheckerboard="0"
     inkscape:deskcolor="#d1d1d1"
     inkscape:document-units="mm"
     showgrid="false"
     showguides="true"
     inkscape:zoom="1.7158096"
     inkscape:cx="120.64275"
     inkscape:cy="161.73123"
     inkscape:window-width="1920"
     inkscape:window-height="1137"
     inkscape:window-x="-8"
     inkscape:window-y="-8"
     inkscape:window-maximized="1"
     inkscape:current-layer="layer1"><sodipodi:guide
       position="5.7086283,46.607445"
       orientation="1,0"
       id="guide304"
       inkscape:locked="false" /><sodipodi:guide
       position="94.291371,27.030175"
       orientation="1,0"
       id="guide306"
       inkscape:locked="false" /><sodipodi:guide
       position="65.101986,7.4528449"
       orientation="0,-1"
       id="guide308"
       inkscape:locked="false" /><sodipodi:guide
       position="53.837492,92.436054"
       orientation="0,-1"
       id="guide310"
       inkscape:locked="false" /><sodipodi:guide
       position="55.840302,14.660224"
       orientation="0,-1"
       id="guide312"
       inkscape:locked="false" /><sodipodi:guide
       position="59.399216,85.383395"
       orientation="0,-1"
       id="guide314"
       inkscape:locked="false" /></sodipodi:namedview><defs
     id="defs2" /><g
     inkscape:label="Слой 1"
     inkscape:groupmode="layer"
     id="layer1"><path
       style="fill:#000000;stroke-width:0.994262"
       d="M 8.4772779,99.938186 C 2.6200102,99.203009 -1.288374,93.283971 0.28627245,87.533356 0.94544583,85.126053 18.987859,34.723191 19.661292,33.407756 c 0.931925,-1.820354 2.865645,-3.63339 4.867039,-4.563288 1.022362,-0.475014 7.565128,-2.336893 16.377479,-4.660548 l 14.674966,-3.86952 8.725656,-8.563501 c 4.799111,-4.7099259 9.202173,-8.8546625 9.784583,-9.2105271 2.321258,-1.4183333 6.266257,-1.92171796 8.887928,-1.1341059 2.590057,0.7781147 3.517691,1.4963626 9.273881,7.1805807 5.004232,4.9416623 5.839933,5.8849863 6.553565,7.3975553 1.591971,3.374229 1.591491,6.510426 -0.0015,9.880621 -0.735376,1.555786 -1.711866,2.619697 -9.518376,10.370517 l -8.698934,8.636877 -4.006686,14.787381 c -2.578716,9.517199 -4.283746,15.331394 -4.784074,16.313807 -0.893454,1.754331 -2.523152,3.471099 -4.207575,4.432371 -1.767522,1.008695 -54.368308,19.259609 -56.19924,19.499468 -0.854046,0.111886 -2.1647687,0.126616 -2.9127181,0.03274 z M 39.556772,80.609193 C 52.266854,76.159557 62.839063,72.347655 63.05057,72.1383 c 0.330359,-0.326998 8.262828,-28.473821 8.262828,-29.319038 0,-0.168413 -3.00585,-3.279757 -6.679667,-6.914098 l -6.679668,-6.607891 -14.539541,3.942026 c -7.996748,2.168115 -14.779187,4.096504 -15.072088,4.285309 -0.3938,0.253845 -2.653314,6.360753 -8.672653,23.440033 -4.47706,12.703214 -8.099215,23.137228 -8.049235,23.1867 0.04998,0.04947 4.586496,-4.36109 10.081146,-9.801248 l 9.990274,-9.891197 -0.444977,-1.515091 c -1.267032,-4.314094 0.869797,-9.242499 4.786509,-11.039656 2.883763,-1.323195 5.535767,-1.324429 8.413918,-0.004 1.839488,0.843969 3.246959,2.288191 4.228882,4.3393 0.720245,1.504499 0.82296,1.996723 0.82296,3.943709 0,1.948428 -0.102495,2.438758 -0.825482,3.949042 -1.445802,3.02021 -3.74441,4.673599 -7.310613,5.258525 -1.356052,0.22242 -1.953693,0.193341 -3.24139,-0.157712 -0.868336,-0.236725 -1.715089,-0.455932 -1.881675,-0.487125 -0.166585,-0.03119 -4.787957,4.448202 -10.269716,9.954211 -5.481758,5.50601 -9.866937,10.0083 -9.744842,10.005095 0.122095,-0.003 10.621149,-3.64645 23.331232,-8.096087 z"
       id="path1" /></g></svg>
