<?xml version="1.0" encoding="UTF-8" standalone="no"?>
<!-- Created with Inkscape (http://www.inkscape.org/) -->

<svg
   width="100mm"
   height="100mm"
   viewBox="0 0 100 100"
   version="1.1"
   id="svg5"
   xml:space="preserve"
   inkscape:version="1.3.2 (091e20e, 2023-11-25, custom)"
   sodipodi:docname="youtube.svg"
   xmlns:inkscape="http://www.inkscape.org/namespaces/inkscape"
   xmlns:sodipodi="http://sodipodi.sourceforge.net/DTD/sodipodi-0.dtd"
   xmlns="http://www.w3.org/2000/svg"
   xmlns:svg="http://www.w3.org/2000/svg"><sodipodi:namedview
     id="namedview7"
     pagecolor="#ffffff"
     bordercolor="#666666"
     borderopacity="1.0"
     inkscape:showpageshadow="2"
     inkscape:pageopacity="0.0"
     inkscape:pagecheckerboard="0"
     inkscape:deskcolor="#d1d1d1"
     inkscape:document-units="mm"
     showgrid="false"
     showguides="true"
     inkscape:zoom="1.6819304"
     inkscape:cx="159.638"
     inkscape:cy="156.07067"
     inkscape:window-width="1920"
     inkscape:window-height="1137"
     inkscape:window-x="-8"
     inkscape:window-y="-8"
     inkscape:window-maximized="1"
     inkscape:current-layer="layer1"><sodipodi:guide
       position="5.7086283,46.607445"
       orientation="1,0"
       id="guide304"
       inkscape:locked="false" /><sodipodi:guide
       position="94.291371,27.030175"
       orientation="1,0"
       id="guide306"
       inkscape:locked="false" /><sodipodi:guide
       position="65.101986,7.4528449"
       orientation="0,-1"
       id="guide308"
       inkscape:locked="false" /><sodipodi:guide
       position="53.837492,92.436054"
       orientation="0,-1"
       id="guide310"
       inkscape:locked="false" /><sodipodi:guide
       position="55.840302,14.660224"
       orientation="0,-1"
       id="guide312"
       inkscape:locked="false" /><sodipodi:guide
       position="59.399216,85.383395"
       orientation="0,-1"
       id="guide314"
       inkscape:locked="false" /></sodipodi:namedview><defs
     id="defs2" /><g
     inkscape:label="Слой 1"
     inkscape:groupmode="layer"
     id="layer1"><path
       style="fill:#000000;stroke-width:0.450986"
       d="M 38.384187,81.161303 C 25.336615,80.812329 17.285732,80.176575 14.676718,79.289193 11.186755,78.102179 8.6462862,75.626658 7.3752996,72.174437 6.9663842,71.063748 6.3653155,67.477056 5.9958923,63.943251 5.1070671,55.440974 5.2096352,41.854512 6.2207071,34.16368 c 0.3984805,-3.031097 0.8389008,-5.370373 1.1834123,-6.285654 1.3261072,-3.523144 3.7454346,-5.930291 7.2104466,-7.174147 1.595078,-0.572595 7.416042,-1.255918 12.771108,-1.499202 8.355573,-0.379597 10.780293,-0.425267 22.513219,-0.424034 17.375688,0.0018 25.557977,0.334269 32.360902,1.314814 3.355737,0.483681 5.204066,1.31894 7.235363,3.269658 1.874307,1.799956 2.922948,3.866275 3.471889,6.841279 0.709556,3.845501 1.035352,7.274794 1.391297,14.644621 0.240135,4.972133 -0.01697,13.832646 -0.552317,19.032575 -0.364402,3.539651 -0.969663,7.166678 -1.383538,8.290847 -1.025595,2.785701 -2.930095,5.008059 -5.373021,6.269779 -1.574102,0.812992 -2.55092,1.102656 -4.813539,1.427398 -4.637268,0.665564 -9.263993,0.959883 -19.725121,1.254773 -3.678105,0.103687 -20.637816,0.128225 -24.126621,0.0349 z m 14.10999,-24.492886 c 6.349495,-3.629365 11.544536,-6.638791 11.544536,-6.687615 0,-0.04882 -5.060802,-2.9515 -11.246229,-6.450395 -6.185426,-3.498896 -11.420738,-6.463965 -11.634029,-6.589045 l -0.387801,-0.227414 v 13.323385 c 0,7.327861 0.04027,13.302358 0.08949,13.276657 0.04923,-0.0257 5.284535,-3.016208 11.63403,-6.645573 z"
       id="path1" /></g></svg>
